<svg xmlns:xlink="http://www.w3.org/1999/xlink" xmlns="http://www.w3.org/2000/svg" width="50" height="50" viewBox="0 0 32 32"><g fill="none" fill-rule="evenodd" transform="translate(3.556 1.185)"><path fill="#FDB610" fill-rule="nonzero" d="M0,12.5872378 L0,8.99066488 C0.0214904061,8.95382419 0.0583311022,8.91851852 0.0621686747,8.88014279 C0.113592146,8.35362784 0.1535029,7.82864793 0.209531459,7.29983043 C0.323123606,6.28057117 0.505024543,5.2766622 0.900294511,4.32187416 C1.39841142,3.11764391 2.26800535,2.35243195 3.545917,2.07766176 C3.8268272,2.02331384 4.11252551,1.99759842 4.39862561,2.00091031 C4.66098831,1.9969603 4.90018495,2.15057838 5.00572959,2.39080768 C5.15923249,2.71009371 5.32731816,3.0270772 5.45856314,3.35710843 C5.84232039,4.31266399 6.01501116,5.32194556 6.22607764,6.32355199 C6.39288413,7.12176707 6.57555258,7.91614458 6.774083,8.70668452 C6.91146809,9.24394467 7.27834003,9.53253012 7.8432307,9.57627845 C8.00252536,9.60033214 8.16388635,9.54834435 8.27917894,9.43582329 C9.13495761,8.62225792 10.0667202,7.91844712 11.1765462,7.48249888 C11.2041767,7.37120928 11.2364123,7.27219991 11.2532976,7.170888 C11.510521,5.6287937 11.8885344,4.10929827 12.3838465,2.62643463 C12.8059795,1.35389558 13.6233824,0.47048639 14.9565551,0.125872378 C14.9734404,0.121267291 14.9834181,0.0928692548 14.9972334,0.0759839357 L16.033378,0.0759839357 C16.2375368,0.138920125 16.4393931,0.20799643 16.6473896,0.264024989 C17.4977956,0.49427934 17.9322088,1.09140562 18.0289157,1.92415886 C18.0867354,2.47202029 18.0977763,3.02381167 18.0619188,3.57354752 C18.0166354,4.38788041 17.9084159,5.19837573 17.8508523,6.01270861 C17.8370682,6.31017825 17.8540435,6.60827614 17.9015083,6.90225792 C17.9437216,7.20926372 18.1509505,7.39193217 18.4433735,7.45947345 C18.6436948,7.50552432 18.8570638,7.49631415 19.0573851,7.54390004 C19.3098974,7.60453369 19.5946452,7.64290942 19.795734,7.78643463 C20.5264079,8.30450692 20.9731013,8.97838465 20.7819902,9.93547523 C20.77278,9.98075859 20.7681749,10.0268095 20.7628023,10.0720928 C20.7052387,10.5157162 20.6476751,10.9585721 20.5885765,11.4183133 L20.9400982,11.6930834 C22.0192236,12.5373494 23.0546006,13.4307363 23.9825257,14.4423204 C24.5965373,15.1108255 25.2189915,15.7770281 25.4024275,16.7156983 C25.4024275,16.722606 25.4216154,16.7272111 25.431593,16.7325837 L25.431593,17.9068809 C25.4070326,17.941419 25.3678893,17.9728871 25.3594467,18.0112628 C25.1399375,18.9929139 24.6686836,19.8571352 24.1091656,20.6776082 C21.912539,23.9073092 19.1970727,26.6596162 16.2390718,29.1832039 C15.6150756,29.7168648 14.8676666,30.0862162 14.0647033,30.2577242 C13.9819773,30.2812406 13.9011561,30.3110033 13.8229362,30.3467559 L12.5104864,30.3467559 C12.487461,30.3237305 12.4675056,30.2868898 12.4406426,30.2807497 C11.4513164,30.0689157 10.6170281,29.5431682 9.79885765,28.9828826 C8.02666667,27.7702097 6.4409817,26.3380277 4.91516287,24.8383043 C4.00178781,23.9292314 3.1777912,22.9345755 2.45451138,21.8680232 C2.13138777,21.3990718 1.87503793,20.8948148 1.80596162,20.3260866 C1.74763052,19.8440875 1.60180277,19.3950915 1.45827755,18.9353503 C0.868058902,17.0511022 0.287817938,15.1614815 0.118197233,13.1789915 C0.0899043452,12.9796836 0.050443164,12.7821215 0,12.5872378 Z M14.3717091,20.1856314 C14.3302633,20.2055868 14.289585,20.2270772 14.2481392,20.2462651 C13.7269969,20.4841946 13.6479429,20.4642392 13.3063989,20.0014279 C13.0270237,19.6238108 12.7407407,19.2507988 12.4790183,18.8616689 C12.3508434,18.6720928 12.2126908,18.6314145 12.013137,18.708166 C11.8304685,18.7734047 11.6439625,18.8271307 11.4589915,18.8862294 C11.1074699,18.5546631 10.7582508,18.2215618 10.4044266,17.8922981 C10.0506024,17.5630344 9.78504239,17.1669969 9.73592146,16.6796252 C9.6916694,16.222325 9.67884738,15.7625273 9.69754574,15.3034717 C9.73745649,14.1997858 9.80806783,13.0968675 9.85104864,11.9931816 C9.86332887,11.6792682 9.82955823,11.3500045 9.53560018,11.1581258 C9.27146532,10.9750967 8.98650891,10.8241162 8.68672914,10.7083623 C7.95759036,10.4504775 7.50859438,10.6262383 7.1179295,11.2939759 C6.95598394,11.5718162 6.82857653,11.8696118 6.68121374,12.1558947 C6.63931349,12.2302748 6.59371727,12.3025115 6.54459616,12.3723338 L6.47398483,12.3661937 C6.15776885,11.0483713 5.8162249,9.73592146 5.53301205,8.41042392 C5.22600625,6.97133423 4.98040161,5.5199643 4.6887461,4.07626952 C4.63369314,3.81820905 4.54029958,3.56984946 4.41167336,3.3394556 C4.24589023,3.0324498 3.98186524,2.9480232 3.64415886,3.03935743 C3.24522156,3.15784543 2.88063324,3.37054388 2.58115127,3.65950915 C2.02393574,4.17067381 1.70771977,4.83534137 1.52274877,5.55526997 C0.965533244,7.7426863 0.885711736,9.9654083 1.06761267,12.2057831 C1.17890228,13.5719589 1.40301651,14.9212494 1.65859884,16.2667024 C1.85734556,17.2939833 2.16427032,18.2973417 2.57424364,19.2600089 C2.7852474,19.7931082 3.2249608,20.2029436 3.77156627,20.375975 C4.14227577,20.5003124 4.5145203,20.6200446 4.8898349,20.7290317 C5.42647289,20.8785803 5.9057046,21.1861229 6.26522088,21.6116734 C6.80248104,22.2433378 7.30597055,22.8995627 7.82327532,23.5458099 C7.63369924,23.8466756 7.70277555,24.1183757 7.8746988,24.4092637 C8.07348505,24.7446676 8.20703257,25.1199822 8.41195895,25.4507809 C8.62870397,25.8020071 8.87275984,26.1356272 9.14186524,26.4485498 C9.40205266,26.7509505 9.56783579,26.7471129 9.9285676,26.5544668 C10.7083623,26.1361714 11.4935297,25.7286212 12.2725569,25.3103257 C12.9203391,24.9618742 13.5773315,24.954199 14.2680946,25.1744757 C15.1530388,25.4561535 16.0548684,25.6810353 16.9459527,25.9419902 C17.1228226,25.9998339 17.3170859,25.9601645 17.4571174,25.8376082 C18.7253927,24.8844771 19.8735173,23.781195 20.8763945,22.5518786 C21.2509415,22.0859973 21.484266,21.5702276 21.5080589,20.9500759 C21.5218742,20.6062294 21.5165016,20.2692905 21.5034538,19.9262115 C21.4727532,19.1418117 21.3115752,18.3819723 21.1611423,17.6175279 C21.1312618,17.3797924 20.939355,17.195242 20.7006336,17.174672 C20.4420112,17.1241127 20.173842,17.1740685 19.950772,17.3143597 C19.900116,17.2376082 19.8440875,17.1608568 19.8011066,17.0841053 C19.4941008,16.5146095 19.3904864,15.8944578 19.3482731,15.2574208 C19.2861044,14.3156805 19.4772155,13.4031058 19.6606515,12.488996 C19.8525301,11.5303704 20.0536189,10.5748148 20.0712718,9.59009371 C20.0781794,9.20633646 19.952307,8.91084337 19.6476037,8.69977689 C18.9744935,8.23389558 18.0964569,8.04815707 17.4663275,9.00678269 C17.3749933,9.14570281 17.2767515,9.28078536 17.1669969,9.44042838 C17.1554806,9.40561586 17.1467545,9.36994162 17.1409014,9.33374386 C17.1526699,7.27322326 17.163671,5.21270266 17.1739045,3.15218206 C17.1849702,2.76150963 17.1706129,2.37053109 17.1309237,1.98172245 C17.0334494,1.22034806 16.5169121,0.759071843 15.7570727,0.835055779 C14.711718,0.939437751 13.8244712,1.35082552 13.3777778,2.39311022 C13.2836834,2.60287841 13.2031839,2.81848372 13.1367782,3.03858992 C12.876335,3.94425703 12.6204968,4.85171501 12.3692637,5.76096386 C11.9432932,7.30673806 11.7360643,8.890888 11.5249978,10.4750379 C11.2839982,12.2602767 11.2333423,14.052423 11.2663454,15.8476394 C11.2786256,16.5384025 11.4912271,17.1654618 11.9747613,17.6704864 C12.3876841,18.101062 12.8190272,18.5147523 13.2634181,18.9169299 C13.6778759,19.3022222 14.0846586,19.6875145 14.3717091,20.1856314 Z"></path><path fill="#4F403F" fill-rule="nonzero" d="M7.82327532 23.5481124C7.30597055 22.9018652 6.80017849 22.2433378 6.26522088 21.6139759 5.9057046 21.1884255 5.42647289 20.8808828 4.8898349 20.7313342 4.5145203 20.6223472 4.14227577 20.5010799 3.77156627 20.3782776 3.22544166 20.2057435 2.78581439 19.7968338 2.57424364 19.264614 2.16427032 18.3019468 1.85734556 17.2985884 1.65859884 16.2713075 1.40301651 14.9258545 1.17890228 13.576564 1.06761267 12.2103882.885711736 9.97001339.965533244 7.74729139 1.52274877 5.55987506 1.70771977 4.83610888 2.02393574 4.17834895 2.58882642 3.65950915 2.88830839 3.37054388 3.2528967 3.15784543 3.651834 3.03935743 3.98723784 2.9480232 4.25126283 3.03935743 4.41934851 3.3394556 4.54797473 3.56984946 4.64136828 3.81820905 4.69642124 4.07626952 4.98500669 5.5199643 5.23368139 6.97133423 5.54068719 8.41042392 5.82390004 9.73592146 6.165444 11.0483713 6.48165997 12.3661937L6.55227131 12.3723338C6.60139242 12.3025115 6.64698863 12.2302748 6.68888889 12.1558947 6.83625167 11.8696118 6.96365908 11.5718162 7.12560464 11.2939759 7.51626952 10.6262383 7.96526551 10.44971 8.69440428 10.7083623 8.99418405 10.8241162 9.27914046 10.9750967 9.54327532 11.1581258 9.83723338 11.3500045 9.87100402 11.6792682 9.85872378 11.9931816 9.81344043 13.0968675 9.74282909 14.1997858 9.70522088 15.3034717 9.68652252 15.7625273 9.69934454 16.222325 9.74359661 16.6796252 9.79271754 17.1669969 10.055975 17.5607318 10.4121017 17.8922981 10.7682285 18.2238643 11.115145 18.5546631 11.4666667 18.8862294 11.6877108 19.2070504 11.9371531 19.5163588 11.9970192 19.9170013 12.1085689 20.5768646 12.0458667 21.2544196 11.8151183 21.882606 11.7874877 21.9593574 11.6999911 22.0069433 11.6401249 22.0683445 11.5480232 21.7728514 11.4428737 21.4811959 11.3661223 21.1818652 11.165801 20.4051406 10.7252477 19.8003391 10.1058635 19.3014547 9.75035647 19.011776 9.40966039 18.704381 9.08506917 18.3804373 8.70131191 17.9966801 8.43728693 17.541544 8.3989112 16.9904685 8.37435074 16.6374119 8.3989112 16.2797501 8.4042838 15.9243909 8.42500669 15.0647747 8.45110219 14.2051584 8.47489514 13.3455422 8.48564034 13.0477465 8.5102008 12.7491834 8.50329317 12.4506203 8.49792057 12.2157608 8.34979027 12.1551272 8.15867916 12.2925123 8.11105763 12.3252892 8.06972103 12.3663658 8.03664436 12.4137796 7.43184293 13.3516823 6.78406069 14.2757697 6.93986613 15.4838376 6.94485726 15.5525675 6.94485726 15.621569 6.93986613 15.690299 6.7687104 15.824614 6.7157519 15.6519232 6.65818831 15.5644266 6.51926818 15.3541276 6.41488621 15.1208032 6.27443106 14.9135743 5.9970284 14.4921003 5.78267595 14.0323673 5.63816154 13.5489335 5.371834 12.7330656 5.08324855 11.9241053 4.80464079 11.112075 4.72788934 10.8004641 4.63502008 10.4911557 4.56901383 10.1764748 4.21544549 8.50892161 3.86929645 6.84213595 3.53056671 5.1761178 3.49909862 5.0226149 3.50063365 4.85529674 3.29417224 4.74630968 3.20957203 4.83383797 3.1344508 4.9300549 3.07005801 5.03336011 2.9980308 5.18976309 2.93873983 5.35172241 2.89276216 5.51766176 2.47523427 6.90763052 2.33017403 8.3352075 2.30254351 9.77583222 2.25895395 11.8373035 2.49126769 13.8953451 2.99330656 15.8952253 3.15678715 16.5506827 3.38397144 17.1900223 3.5827577 17.8362695 3.74470326 18.4541187 4.07703704 18.9414904 4.657278 19.2293083 4.86245201 19.3352777 5.07603705 19.4241003 5.29585007 19.4948684 6.30436412 19.8018742 7.06804105 20.4419813 7.70124052 21.2555466 7.96910308 21.5993931 8.21777778 21.9578224 8.47643017 22.309344 8.9492191 22.9525212 9.57781348 23.2365016 10.3660509 23.0768585 10.6055154 23.0285051 10.822722 22.8742347 11.0568139 22.7805979 11.1466131 22.7445248 11.2333423 22.595627 11.3492369 22.7445248 11.301651 23.2349665 11.0529763 23.6333066 10.7467381 23.9955734 10.0728603 24.7907184 9.40589023 24.8674699 8.5892548 24.238108 8.31755466 24.029344 8.07732262 23.7791343 7.82327532 23.5481124zM14.3717091 20.1856314C14.0846586 19.6905846 13.680946 19.3052923 13.2595805 18.9253726 12.8174922 18.5201249 12.3838465 18.1064346 11.9732262 17.675859 11.4896921 17.1708344 11.2770906 16.5468452 11.2648104 15.853012 11.2318072 14.0562606 11.2824632 12.2641142 11.5234627 10.4804105 11.7375993 8.8962606 11.9448282 7.31211066 12.3677287 5.76633646 12.6179384 4.85759929 12.8737766 3.95014131 13.1352432 3.04396252 13.2016489 2.82385632 13.2821484 2.60825102 13.3762427 2.39848282 13.8260062 1.35619813 14.713253.944810353 15.7555377.84042838 16.513842.76367693 17.0319143 1.22418563 17.1293887 1.98709505 17.1690779 2.37590369 17.1834351 2.76688223 17.1723695 3.15755466 17.1646943 5.21756359 17.1536933 7.27808419 17.1393664 9.33911647 17.1452195 9.37531422 17.1539456 9.41098846 17.1654618 9.44580098 17.2752164 9.28615797 17.3734583 9.15107541 17.4647925 9.01215529 18.0949219 8.05045962 18.9729585 8.23619813 19.6460687 8.70514949 19.9530745 8.91621598 20.0766444 9.21247657 20.0697367 9.59546631 20.0520839 10.5801874 19.8509951 11.535743 19.6591165 12.4943686 19.4756805 13.4084784 19.2845694 14.3210531 19.3467381 15.2627934 19.3889514 15.8998304 19.4917983 16.5199822 19.7995716 17.0894779 19.8425524 17.1662294 19.898581 17.2429808 19.9492369 17.3197323 19.9695714 17.3846769 19.9952427 17.4478284 20.0259884 17.5085408 20.246579 17.858696 20.3736859 18.2595716 20.3951629 18.6728603 20.4435163 19.5248014 20.0881571 20.2316823 19.6406961 20.9109326 19.606158 20.9638911 19.5125212 20.9784739 19.4457474 21.011477 19.4357697 20.7935029 19.4273271 20.5755288 19.4142793 20.3583222 19.3513432 19.3068273 19.184025 18.2821954 18.6613476 17.3450602 18.5435915 17.1207007 18.4375325 16.8903938 18.3435966 16.6550647 18.1317626 16.1638554 17.9943775 15.6511557 18.0465685 15.1146631 18.1302276 14.2588844 18.2315395 13.4038733 18.3451316 12.5519322 18.4080678 12.0753057 18.5109148 11.6048193 18.5961089 11.1312628 18.6073815 11.1236891 18.6128638 11.1099833 18.6099241 11.0967247L18.6452298 10.9908077C18.7004909 10.7106649 18.7672646 10.4328246 18.7987327 10.1503793 18.7969028 10.0536885 18.7471394 9.96422927 18.6659527 9.91168228 18.5892012 9.87867916 18.4663989 9.91168228 18.3819723 9.95312807 18.317581 10.0007737 18.266562 10.0642169 18.233842 10.1373315 18.0035877 10.5210888 17.7656582 10.8987059 17.543079 11.2886033 17.4507184 11.4337118 17.3881053 11.595723 17.3588755 11.7652298 17.2944043 12.3569835 17.2575636 12.9518072 17.2099777 13.5450959L17.1385988 13.8966176 17.0618474 13.9142704C16.9878467 13.8177921 16.9223621 13.7150712 16.8661312 13.6072646 16.7371888 13.3002588 16.591361 12.9970906 16.5100045 12.6778046 16.3611066 12.090656 16.2536546 11.4927622 16.1262472 10.8994734 16.0610085 10.1780098 15.9788844 9.45808121 15.9343686 8.73585007 15.8131013 6.79634092 15.7493976 4.85529674 15.876805 2.91195002 15.8927171 2.78621682 15.8963159 2.65923044 15.8875502 2.53279786 15.8576171 2.29486836 15.6941365 2.1912539 15.4684873 2.26954038 15.3733165 2.30827536 15.2859456 2.3639223 15.2106024 2.43378849 14.8882735 2.71524163 14.6493464 3.07973825 14.5198394 3.4875859 14.1598751 4.5621062 13.7523249 5.63202142 13.4913699 6.73263722 12.96639 8.91544846 12.702365 11.1412405 12.5995181 13.3846854 12.5642124 14.1521999 12.5718876 14.925087 12.7384382 15.6872289L12.7768139 15.7754931 12.7768139 15.7754931C12.7714053 16.1823885 12.9178015 16.5767007 13.1874342 16.8814815 13.5627207 17.2989915 13.9638997 17.6924801 14.3885944 18.0596162 14.8343293 18.435574 15.2116307 18.8858428 15.5037929 19.3904864 15.7885408 19.8893708 16.0809639 20.3828826 16.3687818 20.878697 16.5672231 21.2531746 16.9336551 21.5093628 17.3535029 21.5671575 17.8969032 21.6393039 18.4479786 21.6492816 18.9959839 21.6861223 18.9959839 21.9601249 18.8317358 22.1427934 18.6245069 22.2686658 18.2910148 22.4694937 17.9472066 22.6526702 17.5945025 22.8174386 17.016564 23.0891388 16.5084694 22.9624989 16.0502633 22.5280857 15.6462881 22.1348796 15.2974753 21.6887297 15.0133512 21.2018206 14.8061223 20.8556716 14.5827755 20.5210353 14.3717091 20.1856314z"></path><path fill="#E37C11" fill-rule="nonzero" d="M19.4472825,21.0061044 C19.5140562,20.9731013 19.607693,20.9585185 19.6422311,20.90556 C20.0881571,20.2263097 20.4450513,19.5194288 20.3966979,18.6674877 C20.3752209,18.254199 20.248114,17.8533234 20.0275234,17.5031682 C19.9967778,17.4424558 19.9711064,17.3793043 19.950772,17.3143597 C20.173842,17.1740685 20.4420112,17.1241127 20.7006336,17.174672 C20.939355,17.195242 21.1312618,17.3797924 21.1611423,17.6175279 C21.3146452,18.3850424 21.4727532,19.1418117 21.5034538,19.9262115 C21.5165016,20.2692905 21.5218742,20.6062294 21.5080589,20.9500759 C21.484266,21.5702276 21.2509415,22.0859973 20.8763945,22.5518786 C19.8744706,23.7810099 18.7273847,24.8842844 17.4601874,25.8376082 C17.3196537,25.9609978 17.1242759,26.0007159 16.9467202,25.9419902 C16.0556359,25.6802677 15.1538063,25.455386 14.2688621,25.1744757 C13.573494,24.954199 12.9195716,24.9618742 12.2733244,25.3103257 C11.4942972,25.7286212 10.7091299,26.1361714 9.92933512,26.5544668 C9.5686033,26.7471129 9.40282017,26.7509505 9.14263275,26.4485498 C8.87352736,26.1356272 8.62947148,25.8020071 8.41272646,25.4507809 C8.2085676,25.1199822 8.07502008,24.7446676 7.87546631,24.4092637 C7.70354306,24.1183757 7.63446676,23.8466756 7.82404284,23.5458099 C8.07809014,23.7760643 8.31832218,24.0270415 8.59155734,24.236573 C9.40589023,24.8674699 10.0728603,24.7907184 10.745203,23.9978759 C11.0522088,23.6356091 11.300116,23.2372691 11.3477019,22.7468273 L11.6355199,22.0637394 C11.695386,22.0023382 11.7828826,21.9516823 11.8105132,21.8780009 C12.0412616,21.2498145 12.1039638,20.5722596 11.9924141,19.9123963 C11.932548,19.5117537 11.6854083,19.2024453 11.4620616,18.8816243 C11.6470326,18.8225257 11.8335386,18.7687996 12.0162071,18.7035609 C12.2157608,18.6314145 12.3539134,18.6690228 12.4820884,18.8570638 C12.7438108,19.2461937 13.0300937,19.6192057 13.309469,19.9968228 C13.6510129,20.4573315 13.7300669,20.4795895 14.2512093,20.24166 C14.2926551,20.2224721 14.3333333,20.2009817 14.3747791,20.1810263 C14.5889157,20.5195002 14.8091923,20.8541365 15.0164212,21.196448 C15.3005454,21.6833571 15.6493581,22.129507 16.0533333,22.5227131 C16.513842,22.9571263 17.0196341,23.0837662 17.5975725,22.812066 C17.9502767,22.6472976 18.2940849,22.4641211 18.627577,22.2632932 C18.8348059,22.1374208 19.000589,21.9562874 18.999054,21.6807497 L19.4472825,21.0061044 Z"></path><path fill="#D8A87C" fill-rule="nonzero" d="M11.6324498,22.0637394 L11.3446319,22.7468273 C11.2287372,22.5979295 11.142008,22.7468273 11.0522088,22.7829005 C10.8219545,22.8765373 10.6024453,23.0308077 10.3614458,23.0791611 C9.57320839,23.2388041 8.94461401,22.9548237 8.47182508,22.3116466 C8.21317269,21.9601249 7.96449799,21.6016957 7.69663543,21.2578492 C7.064971,20.4442838 6.30129407,19.8057117 5.29585007,19.4948684 C5.07806292,19.4230421 4.86654153,19.3334536 4.66341812,19.2270058 C4.07933958,18.9391879 3.7470058,18.4518162 3.58889781,17.833967 C3.651834,17.8830879 3.71707274,17.9283713 3.77693887,17.9813298 C4.16453369,18.3198037 4.50838019,18.2284694 4.65037037,17.7249799 C4.74666836,17.3712888 4.7783883,17.0031296 4.74400714,16.6381794 C4.68260598,15.8952253 4.66188309,15.1492012 4.65113788,14.4039447 C4.64423025,13.9342258 4.68260598,13.4637394 4.7048639,12.9940205 C4.73479697,12.3646586 4.76933512,11.7352967 4.80233824,11.1051673 C5.08094601,11.9171977 5.36953146,12.726158 5.63585899,13.5420259 C5.78037341,14.0254596 5.99472586,14.4851926 6.27212851,14.9066667 C6.41488621,15.1138956 6.51926818,15.34722 6.65588577,15.557519 C6.71344935,15.6450156 6.76640785,15.8177064 6.93756359,15.6833913 C6.97900937,15.7233021 7.01968764,15.7601428 7.06190094,15.8023561 C7.34741633,16.0663811 7.56308791,16.0203302 7.71428826,15.6534583 C7.78336457,15.4838376 7.82557787,15.3034717 7.88237394,15.1292459 C8.07834598,14.5316079 8.27482969,13.93397 8.47182508,13.336332 C8.44803213,14.1959482 8.42193664,15.0555645 8.40121374,15.9151807 C8.39277108,16.2705399 8.37128068,16.6282017 8.39584114,16.9812584 C8.43421687,17.5323338 8.69670683,17.9905399 9.08199911,18.3712271 C9.40659034,18.6951708 9.74728641,19.0025658 10.1027934,19.2922445 C10.7221776,19.7903614 11.1627309,20.3959304 11.3630522,21.1726551 C11.4359661,21.4765908 11.5403481,21.7682463 11.6324498,22.0637394 Z"></path><path fill="#FCE3C2" fill-rule="nonzero" d="M4.79543061,11.1074699 C4.76242749,11.7375993 4.72788934,12.3669612 4.69795627,12.9963231 C4.67569835,13.4660419 4.63732262,13.9365283 4.64423025,14.4062472 C4.65497546,15.1515038 4.67569835,15.8975279 4.73709951,16.6404819 C4.77176015,17.0061928 4.74003804,17.3751573 4.64346274,17.729585 C4.50147256,18.2330745 4.15762606,18.3244087 3.77003124,17.9859349 C3.7101651,17.9329763 3.64492637,17.887693 3.58199018,17.8385721 C3.38320393,17.1923249 3.15601963,16.5506827 2.99330656,15.8952253 C2.49126769,13.8953451 2.25895395,11.8373035 2.30254351,9.77583222 C2.33324409,8.3352075 2.47830433,6.90609549 2.8950647,5.51766176 C2.94029634,5.35179073 2.99881671,5.18983303 3.07005801,5.03336011 C3.13348491,4.93020061 3.20757283,4.83398921 3.29110219,4.74630968 C3.49756359,4.85529674 3.49602856,5.02414993 3.52749665,5.1761178 C3.87083147,6.84213595 4.21493381,8.50738658 4.55980366,10.1718697 C4.62580991,10.4865506 4.71637662,10.795859 4.79543061,11.1074699 Z"></path><path fill="#FBE2C1" fill-rule="nonzero" d="M8.46721999,13.3386345 C8.27073628,13.9367842 8.07425257,14.5344221 7.87776885,15.1315484 C7.82097278,15.3057742 7.77875948,15.4861401 7.70968318,15.6557608 C7.55618028,16.0226328 7.34281124,16.0686836 7.05729585,15.8046586 C7.01508255,15.7662829 6.97440428,15.7279072 6.9329585,15.6856939 C6.93794963,15.6169639 6.93794963,15.5479625 6.9329585,15.4792325 C6.7794556,14.2688621 7.4249353,13.3447747 8.02973672,12.4091745 C8.0628134,12.3617607 8.10415,12.3206841 8.15177153,12.2879072 C8.3405801,12.1505221 8.49101294,12.2111557 8.49638554,12.4460152 C8.50252566,12.7407407 8.47796519,13.0408389 8.46721999,13.3386345 Z"></path><path fill="#FCE3C2" fill-rule="nonzero" d="M12.7315306,15.6849264 C12.5649799,14.9258545 12.5573048,14.15527 12.5926104,13.3823829 C12.6954574,11.138938 12.9594824,8.91314592 13.4844623,6.73033467 C13.7492548,5.62971888 14.1529674,4.56133869 14.5129317,3.48528336 C14.6424388,3.07743571 14.8813659,2.71293909 15.2036948,2.43148594 C15.279038,2.36161976 15.3664089,2.30597281 15.4615797,2.26723784 C15.6872289,2.19048639 15.8507095,2.29256582 15.8806426,2.53049531 C15.8929265,2.65632444 15.8929265,2.78305084 15.8806426,2.90887996 C15.7532352,4.85222668 15.8169389,6.79327086 15.9382062,8.73278001 C15.982722,9.45501116 16.0648461,10.1749398 16.1300848,10.8964034 C16.1131995,11.0207407 16.0993842,11.1458456 16.0794288,11.270183 C15.8944578,12.4298974 15.5582865,13.5489335 15.1584114,14.6472468 C15.1062204,14.7915395 15.0240964,14.9696029 14.9035966,15.031004 C14.7830968,15.0924052 14.6081035,15.0202588 14.422365,15.004141 C14.3870593,15.2052298 14.3502187,15.427809 14.3087729,15.6496207 C14.1844355,16.3196609 13.6448728,16.510772 13.126033,16.0702187 L12.7637662,15.7632129 L12.7637662,15.7632129 L12.7315306,15.6849264 Z"></path><path fill="#D8A87C" fill-rule="nonzero" d="M12.7683713,15.7716555 L13.1306381,16.0786613 C13.6494779,16.5192146 14.1890406,16.3281035 14.313378,15.6580634 C14.3548237,15.4362517 14.3901294,15.2136725 14.4269701,15.0125837 C14.6127086,15.0287015 14.7953771,15.0993128 14.9082017,15.0394467 C15.0210263,14.9795805 15.1108255,14.7976796 15.1630165,14.6556894 C15.5621241,13.5543061 15.8982954,12.43527 16.0840339,11.2786256 C16.1039893,11.1542883 16.1178046,11.0291834 16.1346899,10.9048461 C16.2597947,11.4981348 16.3649442,12.0960286 16.5184471,12.6831772 C16.5998037,13.0024632 16.7487015,13.3071664 16.8745739,13.6126372 C16.9308047,13.7204438 16.9962893,13.8231647 17.07029,13.919643 L17.1470415,13.9019902 L17.2184203,13.5504685 C17.255261,13.4936725 17.2951718,13.4391789 17.3274074,13.3793128 C17.6136903,12.835145 17.8907631,12.2871397 18.1862561,11.7483445 C18.3036859,11.5342079 18.4610263,11.3407943 18.5999465,11.1381705 C18.5147523,11.6117269 18.4119054,12.0822133 18.3489692,12.5588398 C18.2353771,13.4107809 18.1340651,14.2657921 18.0504061,15.1215707 C17.9982151,15.6588309 18.1356002,16.1707631 18.3474342,16.6619723 C18.4417177,16.8962751 18.548032,17.1255553 18.6659527,17.3488978 C19.1917001,18.286033 19.3567158,19.3106649 19.4188844,20.3621598 C19.4319322,20.5793664 19.4403748,20.7973405 19.4503525,21.0153146 L18.999054,21.6914949 C18.4510486,21.6546542 17.8999732,21.6446765 17.356573,21.5725301 C16.9343347,21.5137909 16.5665935,21.2544275 16.3695493,20.8763945 C16.0817314,20.3805801 15.7893083,19.8870683 15.5045605,19.3881838 C15.2100008,18.8814377 14.829525,18.4298013 14.3801517,18.0534761 C13.955457,17.68634 13.5542781,17.2928513 13.1789915,16.8753414 C12.9098956,16.5711511 12.7635367,16.1777601 12.7683713,15.7716555 Z"></path><path fill="#F9E0C0" fill-rule="nonzero" d="M18.5968764,11.1289603 C18.4579563,11.3315841 18.3006158,11.5249978 18.1831861,11.7391343 C17.887693,12.2763945 17.6106203,12.8259349 17.3243373,13.3701026 C17.2928693,13.4299688 17.252191,13.4844623 17.2153503,13.5412584 C17.2629362,12.9479697 17.2997769,12.3531459 17.3642481,11.7613922 C17.3934779,11.5918854 17.456091,11.4298742 17.5484516,11.2847657 C17.7694958,10.8964034 18.0089603,10.5172512 18.2392146,10.133494 C18.2719346,10.0603793 18.3229536,9.99693611 18.3873449,9.9492905 C18.4717715,9.90861223 18.5961089,9.87253905 18.6713253,9.90784471 C18.752512,9.9603917 18.8022754,10.0498509 18.8041053,10.1465417 C18.7695672,10.4289871 18.7027934,10.7068273 18.6506024,10.9869701 L18.6152967,11.0928871 C18.6181248,11.1077085 18.6105408,11.1225605 18.5968764,11.1289603 Z"></path><path fill="#D8A87C" fill-rule="nonzero" d="M18.6169688 11.0944221L18.6629688 10.9885051 18.6169688 11.0944221zM12.7373427 15.6849264L12.7873427 15.7849264 12.7373427 15.6849264z"></path></g></svg>