<svg xmlns:xlink="http://www.w3.org/1999/xlink" xmlns="http://www.w3.org/2000/svg" width="50" height="50" viewBox="0 0 32 32"><g fill="none" fill-rule="evenodd" transform="translate(4.148 4.148)"><path fill="#FDB610" fill-rule="nonzero" d="M10.6543178,0 L11.924779,0 C11.9294815,0.0101887694 11.9334002,0.0289988053 11.940454,0.0305663082 C13.0377061,0.255502987 13.9970179,0.804912784 14.9508435,1.35197133 C16.8412521,2.43433214 18.5929367,3.72125209 20.2921099,5.07949343 C21.4763306,6.00997899 22.5584791,7.06349082 23.5203823,8.22233692 C24.1528698,8.99589964 24.4130753,9.86821505 24.2092999,10.8533907 C24.114871,11.3003119 23.9789544,11.7374493 23.8033166,12.1591207 C23.4639522,12.9773572 22.95373,13.6984086 22.4372378,14.41319 C20.3211087,17.3475556 17.7707814,19.8790729 15.0401912,22.2350299 C14.7550557,22.480517 14.4472234,22.6983352 14.1208507,22.8855436 C12.6740454,23.7202389 11.1896201,23.8158566 9.6848172,23.0422939 C9.30961015,22.8477844 8.9446813,22.6340591 8.59148387,22.4019689 C6.83274552,21.2529892 5.25897252,19.8775054 3.73927838,18.4354026 C2.66156196,17.4182537 1.68802301,16.296111 0.833127838,15.0856487 C0.497978342,14.631251 0.248091274,14.1197924 0.0956176822,13.5761434 C0.0708229581,13.5157537 0.0387103491,13.4586354 0,13.4060693 L0,11.9953166 C0.0407550777,11.9036177 0.0885639188,11.8150538 0.121481481,11.7217873 C0.264124253,11.3126691 0.366011947,10.8847407 0.550193548,10.4952162 C2.22428674,6.954227 4.61002628,3.96656631 7.6345233,1.48912784 C8.50683871,0.773562724 9.48339307,0.243746714 10.6151302,0.0517275986 C10.6308053,0.0493763441 10.640994,0.0180262843 10.6543178,0 Z M23.1676941,10.2765496 C23.1761166,9.94428029 23.0617039,9.62057592 22.846356,9.36739785 C22.6112306,9.07662605 22.3690514,8.77801673 22.0806308,8.54445878 C21.2859068,7.90178256 20.4731565,7.28105137 19.6510012,6.66972521 C18.4965352,5.80759857 17.2213716,5.19862366 15.8043489,4.9086356 C15.1452139,4.77383035 14.4829438,4.66410514 13.8136201,4.80831541 C13.3206404,4.91490562 12.8284444,5.03403584 12.347221,5.18451613 C11.225935,5.54332028 10.0509465,5.70507676 8.87441816,5.66260454 C8.12280048,5.63282198 7.36883154,5.66260454 6.61721386,5.63360573 C6.04849554,5.60911211 5.48899683,5.78341855 5.03481959,6.12658542 C4.03867145,6.85469056 3.29489128,7.80067861 2.70080765,8.86971565 C2.55424612,9.13462366 2.47116846,9.43088172 2.1780454,9.59625329 C2.08713023,9.64719713 2.03070012,9.77808363 1.98367503,9.88310633 C1.88257109,10.108043 1.76500836,10.3329797 1.71249701,10.5704564 C1.61498325,11.0304947 1.4040314,11.4588644 1.09881959,11.8166213 C0.833127838,12.1301219 0.668540024,12.5125926 0.785318996,12.9287646 C0.861964976,13.1992286 0.988784907,13.4528684 1.15916846,13.6764636 C1.57769176,14.2133333 2.02756511,14.7266906 2.47665472,15.239264 C2.64023613,15.4236252 2.81990152,15.5930615 3.01352449,15.7455675 C3.4525733,16.1192641 4.05641916,16.2331186 4.60140502,16.0449606 C5.13905854,15.879589 5.69081959,15.7620263 6.23395938,15.614681 C8.08642593,15.1110746 9.99371366,14.8368 11.9130227,14.7980119 C12.5000526,14.7862557 13.0886499,14.7556894 13.6733286,14.7196368 C15.1758441,14.638468 16.6827128,14.7083107 18.1712784,14.9281147 C18.5310203,14.9782748 18.8931135,15.0637037 19.2512879,15.0519474 C19.7466189,15.0354886 20.1721959,14.7854719 20.5515317,14.4758901 C21.3250135,13.8400866 21.9871994,13.0798972 22.5109104,12.2265233 C22.8565448,11.669276 23.1496679,11.0736249 23.1676941,10.2765496 Z M8.10320669,18.8374671 C8.28817204,18.8131708 8.41670729,18.8186571 8.52329749,18.7794695 C8.85404062,18.6595556 9.17381123,18.5090753 9.50612186,18.3946476 C9.99126404,18.2269247 10.4764062,17.9816105 10.9748722,17.9416392 C12.2766406,17.8326317 13.5871167,17.9820579 14.8309295,18.3813238 C15.1491326,18.4832115 15.4775245,18.5537491 15.7996464,18.6383943 C15.8725352,18.3609462 15.8780215,18.3578112 15.7777013,18.2034122 C15.6219143,17.9410555 15.452117,17.6872754 15.2690466,17.4431732 C15.0339211,17.1516177 14.7784182,16.8726022 14.4124062,16.7299594 C13.6292366,16.4142975 12.8188659,16.1708452 11.9913978,16.002638 C11.4427718,15.8968315 11.013276,16.0402581 10.5806452,16.3404349 C9.69265472,16.9517611 8.96141458,17.7253238 8.25682198,18.5286691 C8.20117563,18.5937204 8.17687933,18.6869869 8.10320669,18.8374671 Z"></path><path fill="#4D4040" fill-rule="nonzero" d="M23.1676941,10.2765496 C23.1496679,11.0736249 22.8541935,11.669276 22.5093429,12.2265233 C21.9856319,13.0798972 21.323446,13.8400866 20.5499642,14.4758901 C20.1706284,14.7893907 19.7450514,15.0354886 19.2497204,15.0519474 C18.891546,15.0637037 18.5294528,14.9782748 18.1697109,14.9281147 C16.6811453,14.7083107 15.1742766,14.638468 13.6717611,14.7196368 C13.0855149,14.7556894 12.4961338,14.7862557 11.9114552,14.7980119 C9.99530072,14.8375676 8.09121815,15.1118355 6.24179689,15.614681 C5.69865711,15.7620263 5.1445448,15.879589 4.60924253,16.0449606 C4.06425668,16.2331186 3.46041081,16.1192641 3.02136201,15.7455675 C2.82773904,15.5930615 2.64807365,15.4236252 2.48449223,15.239264 C2.03775388,14.7266906 1.58474552,14.2133333 1.16622222,13.6764636 C0.996186943,13.4538093 0.869382024,13.2012628 0.79237276,12.9318996 C0.672458781,12.5157276 0.837046595,12.1332569 1.10587336,11.8197563 C1.41108517,11.4619994 1.62203702,11.0336297 1.71955078,10.5735914 C1.77206213,10.3384659 1.88962485,10.111178 1.99072879,9.88624134 C2.03775388,9.78121864 2.09418399,9.65111589 2.18509916,9.59938829 C2.47822222,9.43401673 2.56129988,9.13775866 2.70786141,8.87285066 C3.30194504,7.80381362 4.04572521,6.85782557 5.04187336,6.12972043 C5.49605059,5.78655355 6.0555493,5.61224712 6.62426762,5.63674074 C7.3758853,5.66338829 8.12985424,5.63674074 8.88147192,5.66573955 C10.0580003,5.70821177 11.2329888,5.54645528 12.3542748,5.18765114 C12.8354982,5.03717085 13.3276941,4.91804062 13.8206738,4.81145042 C14.4899976,4.66724014 15.1530514,4.77696535 15.8114026,4.91177061 C17.2299928,5.20175866 18.503589,5.81073357 19.658055,6.67286022 C20.4762915,7.28418638 21.2890418,7.90491756 22.0876846,8.54759379 C22.3761051,8.78271924 22.6175006,9.07976105 22.8534098,9.37053286 C23.065488,9.6239171 23.1773057,9.94626432 23.1676941,10.2765496 Z M18.2128172,7.6117945 L17.3585281,7.19405496 L15.8145376,6.55294624 C15.2558299,6.33316141 14.6461787,6.27662665 14.056583,6.38992593 L12.48908,6.78180167 C12.3732721,6.78892098 12.2579078,6.80200084 12.1434456,6.82098925 C10.6762628,7.14075986 9.20124253,7.36961529 7.69095341,7.26851135 C7.36569654,7.24656631 7.03730466,7.27713262 6.70969654,7.28340263 C6.35622461,7.28810514 6.01450896,7.33748148 5.71354839,7.54439188 C5.59779769,7.59633931 5.48595243,7.65658384 5.3788865,7.72465472 C4.86314038,8.11453982 4.44887405,8.62289649 4.17112545,9.20672879 C4.11011971,9.35694343 4.06136806,9.51184788 4.02534767,9.66992593 C3.93678375,10.1480143 4.065319,10.5963202 4.2495006,11.022681 C4.3623407,11.2676783 4.51281114,11.4935162 4.6954552,11.6920048 C4.90001434,11.9271302 5.03168459,11.8973477 5.18451613,11.6347909 C5.32010514,11.3996655 5.44080287,11.1598375 5.5630681,10.9184421 C5.85462366,10.3431685 6.12893668,9.75848984 6.43695102,9.19418877 C6.64778017,8.80231302 6.88760812,8.79682676 7.16975866,9.14324492 C7.37745281,9.39796416 7.56163441,9.67227718 7.7669773,9.92699642 C8.07420789,10.3094671 8.25603823,10.3071159 8.58756511,9.9465902 C8.919092,9.58606452 9.27099642,9.20281004 9.62446834,8.8430681 C9.87840382,8.58364636 10.0328029,8.56640382 10.3423847,8.76469295 C10.5175223,8.88110803 10.682443,9.01220559 10.8353644,9.1565687 C11.0360048,9.33683154 11.2201864,9.53590442 11.4223943,9.71459976 C11.7358949,9.98969654 11.8714839,9.9708865 12.0987718,9.63622461 C12.2296583,9.44107049 12.3448698,9.2357276 12.4757563,9.04135723 C12.5919274,8.851791 12.7229643,8.67174634 12.867632,8.50291995 C13.0941362,8.26152449 13.2986953,8.25211947 13.539307,8.47862366 C13.7667586,8.69760081 13.9825858,8.92833975 14.185902,9.16989247 C14.5934528,9.64014337 14.9908148,10.1190155 15.4015006,10.5861314 C15.510727,10.7083334 15.6371979,10.8139458 15.7769176,10.899632 C16.0332043,11.0563823 16.1883871,11.0093572 16.3051661,10.7319092 C16.3955835,10.5281153 16.4641527,10.3153144 16.5097252,10.0970705 C16.6374767,9.41755795 16.7448507,8.73412664 16.8639809,8.05226284 C16.8945472,7.87670251 16.8937634,7.68311589 17.06227,7.53812186 C17.1508339,7.62198327 17.2245066,7.69487216 17.2973955,7.76227479 L17.5074409,8.25055197 C17.5309534,8.40730227 17.5544659,8.56405257 17.5779785,8.72080287 C17.6123824,8.71409782 17.6460011,8.70385463 17.6782987,8.69023656 C17.8781553,8.54602628 18.0764444,8.40024851 18.2755173,8.25603823 C18.6125305,8.01150777 18.6125305,8.01150777 18.9628674,8.12358423 C18.8288459,7.91589008 18.6744468,7.81243489 18.2128172,7.60944325 L18.2128172,7.6117945 Z M3.80746476,11.9263465 L3.75103465,11.8346476 C3.51588822,11.4402772 3.20757384,11.0944543 2.84266667,10.8157706 C2.52302685,11.2024607 2.37599368,11.7033367 2.43589964,12.2014432 C2.494681,12.8151207 2.77212903,13.3700167 3.17967981,13.8394839 C3.49318041,14.1968746 3.87329988,14.4296487 4.37333333,14.3943799 C4.89609558,14.4210275 5.380454,14.2540884 5.86246117,14.0942031 C5.98629391,14.0605018 6.11012664,14.028368 6.23395938,13.9930992 C8.68161529,13.2994791 11.1629725,12.8543082 13.7211374,12.9742222 C14.0605018,12.9898973 14.4006499,12.9820597 14.7400143,12.9851947 C15.8168889,13.0285623 16.8937634,13.0716687 17.970638,13.1145137 C18.0053327,13.1116156 18.0395463,13.1045097 18.0725257,13.0933524 L18.3264612,13.0933524 C18.7340119,13.0667049 19.1423465,13.0478949 19.5483297,13.0149773 C19.9707718,12.978141 20.2960287,12.7539881 20.5672067,12.4412712 C20.9436384,11.989014 21.240706,11.4762346 21.4457921,10.9247121 C21.4835183,10.7930053 21.5110312,10.6585853 21.528086,10.5226476 C21.2882581,10.6268865 21.1158327,10.6746953 20.9747575,10.7687455 C20.7299349,10.9293833 20.4980239,11.108885 20.2811374,11.3056153 C19.8931804,11.6637897 19.7677802,11.6449797 19.5608698,11.148865 C19.4746571,10.9427384 19.4041195,10.7287742 19.3132043,10.5273501 C19.2244992,10.3228921 19.1169207,10.1271518 18.9918662,9.94267145 C18.7481195,9.6056583 18.4730227,9.56098447 18.1461983,9.81727121 C17.7911589,10.0931517 17.4776583,10.4238949 17.3561768,10.8941458 C17.2127719,11.4172284 16.9692264,11.9075136 16.6390442,12.337816 C16.4548626,12.5854815 16.3451374,12.6136965 16.0684731,12.473405 C15.8973289,12.3956935 15.7377595,12.2946768 15.5943035,12.1732282 C15.1154313,11.7233548 14.6538017,11.2578065 14.1835508,10.7985281 C14.0079904,10.6261027 13.8473214,10.4332999 13.6513835,10.2890896 C13.3872593,10.0947192 13.2226714,10.1245018 13.006356,10.3674648 C12.842552,10.5516464 12.703828,10.7593405 12.5415914,10.9427384 C12.2280908,11.3024803 11.9859116,11.3346141 11.5893333,11.0689223 C11.3855579,10.9317658 11.1974576,10.7648268 11.003871,10.6166977 C10.9011995,10.5383226 10.7899068,10.4764062 10.6825329,10.4074361 L10.50227,10.3086834 C10.1746619,10.098638 10.0265329,10.1064755 9.76867861,10.3690323 C9.43950299,10.7036941 9.12208363,11.0501123 8.79055675,11.3816392 C8.48175866,11.6904373 8.33833214,11.6951398 7.99818399,11.4506093 C7.89394504,11.3722342 7.79675986,11.2891565 7.69408841,11.2107814 C7.20110872,10.8345806 6.9816583,10.8667145 6.62426762,11.3675317 C6.56940502,11.4459068 6.51532616,11.524282 6.46751732,11.6026571 C6.16812425,12.079178 5.87186619,12.5580502 5.57090562,13.0345711 C5.39456153,13.3151541 5.22918996,13.375503 4.96271446,13.1874026 C4.73041533,13.0109303 4.51783358,12.8099105 4.3286595,12.5878327 C4.14134289,12.3817061 3.98067384,12.1512832 3.80824851,11.9318327 L3.80746476,11.9263465 Z M19.1360765,8.27719952 C19.279503,8.43394982 19.4127407,8.57737634 19.5428435,8.72315412 C19.7379976,8.94103704 19.9174767,9.17381123 20.1275221,9.37523536 C20.3375675,9.5766595 20.487264,9.57901075 20.7545233,9.39874791 C20.0977395,8.7639092 19.437037,8.30227957 19.1360765,8.27719952 L19.1360765,8.27719952 Z"></path><path fill="#E37C11" fill-rule="nonzero" d="M8.10320669,18.8374671 C8.17687933,18.6869869 8.20117563,18.5937204 8.25995699,18.5286691 C8.96533333,17.7253238 9.69578973,16.9517611 10.5837802,16.3404349 C11.0187622,16.0402581 11.4459068,15.8968315 11.9945329,16.002638 C12.8209357,16.1710297 13.630249,16.4144795 14.4124062,16.7299594 C14.7784182,16.8726022 15.0339211,17.1516177 15.2690466,17.4431732 C15.452117,17.6872754 15.6219143,17.9410555 15.7777013,18.2034122 C15.8772378,18.3601625 15.8725352,18.3601625 15.7996464,18.6383943 C15.4775245,18.5537491 15.1491326,18.481644 14.8309295,18.3813238 C13.5871167,17.9820579 12.2766406,17.8326317 10.9748722,17.9416392 C10.4764062,17.9816105 9.99126404,18.2269247 9.50612186,18.3946476 C9.17381123,18.5090753 8.85404062,18.6595556 8.52329749,18.7794695 C8.41357228,18.8186571 8.28817204,18.8100358 8.10320669,18.8374671 Z"></path><path fill="#E3DEDE" fill-rule="nonzero" d="M14.7439331,12.9789247 C14.4045687,12.9789247 14.0644205,12.9836272 13.7250562,12.9679522 C11.1668913,12.8511732 8.68553405,13.2963441 6.23787814,13.9868292 C6.1140454,14.022098 5.99021266,14.0542318 5.86637993,14.0879331 C5.88518996,13.9366691 5.9055675,13.7861888 5.92281004,13.6349247 C6.02313023,12.7390968 6.41108722,11.9788578 7.01535962,11.3228578 C7.15094863,11.1755125 7.28261888,11.173945 7.39156033,11.3455866 C7.55458065,11.6018734 7.67919713,11.8808889 7.82575866,12.1481481 C7.97232019,12.4154074 8.10869295,12.6599379 8.263092,12.9076033 C8.30541458,12.9757897 8.39632975,13.0141935 8.51781123,13.1058925 C8.67926404,12.7375293 8.8172043,12.4177587 8.96063082,12.1003393 C9.20124253,11.5658208 9.43950299,11.0313023 9.82981123,10.5806452 C10.0124253,10.369816 10.221687,10.2444158 10.5046213,10.3055484 L10.6825329,10.4043011 C10.7530705,10.5469438 10.8189056,10.6935054 10.896497,10.8330131 C11.1535675,11.293859 11.4114217,11.7547049 11.6763297,12.2100645 C11.7500024,12.3362485 11.8166213,12.4922151 12.0486117,12.4694863 C12.1026906,12.3777873 12.1724444,12.2719809 12.2288746,12.1559857 C12.4099211,11.8001625 12.5737252,11.435718 12.7673118,11.0869486 C12.8726807,10.9048398 13.0003748,10.7365994 13.1474313,10.5861314 C13.3331804,10.3901935 13.4225281,10.4035173 13.6051422,10.6104277 C13.6573034,10.6740969 13.7059677,10.7405524 13.75092,10.8095006 C14.2111828,11.4661887 14.5477031,12.2013805 14.7439331,12.9789247 Z"></path><path fill="#AEA2B5" fill-rule="nonzero" d="M17.2950442,7.75913978 L17.0599188,7.53498686 C16.8914122,7.67998088 16.8921959,7.8735675 16.8616296,8.04912784 C16.7424994,8.73099164 16.6351254,9.41442294 16.507374,10.0939355 C16.4618014,10.3121794 16.3932323,10.5249803 16.3028148,10.7287742 C16.1860358,11.0062222 16.030853,11.0548148 15.7745663,10.896497 C15.6348466,10.8108108 15.5083757,10.7051984 15.3991493,10.5829964 C14.9884636,10.1127455 14.5911016,9.63700836 14.1835508,9.16675747 C13.9816962,8.92289462 13.7671754,8.6897995 13.5408746,8.46843489 C13.3002628,8.2419307 13.0957037,8.25133572 12.8691995,8.49273118 C12.7245318,8.66155758 12.5934949,8.84160223 12.4773238,9.03116846 C12.3464373,9.22553883 12.2312258,9.43088172 12.1003393,9.62603584 C11.8730514,9.96383274 11.7343274,9.98264277 11.4239618,9.70441099 C11.2217539,9.52571565 11.0375723,9.32664277 10.8369319,9.14637993 C10.6840105,9.00201682 10.5190898,8.87091926 10.3439522,8.75450418 C10.0343704,8.56013381 9.87997133,8.57737634 9.62603584,8.83287933 C9.27256392,9.19262127 8.93084827,9.56490323 8.58913262,9.93640143 C8.24741697,10.3078996 8.07577539,10.2992784 7.7685448,9.91680765 C7.56241816,9.66130466 7.37666906,9.38699164 7.17132616,9.13305615 C6.88917563,8.78663799 6.64934767,8.79525926 6.43851852,9.184 C6.13050418,9.75143608 5.85619116,10.3361147 5.5646356,10.9082533 C5.44237037,11.1496487 5.32167264,11.3910442 5.18608363,11.6246022 C5.02933333,11.8871589 4.90158184,11.9130227 4.6970227,11.681816 C4.51437864,11.4833274 4.3639082,11.2574895 4.2510681,11.0124922 C4.0668865,10.5861314 3.9375675,10.1378256 4.02691517,9.65973716 C4.09902031,9.86821505 4.16172043,10.0813955 4.24558184,10.2867384 C4.37098208,10.5876989 4.50657109,10.8863082 4.80988292,11.0595173 C4.8522055,11.0297348 4.89374432,11.016411 4.9055006,10.9889797 C5.19940741,10.3502222 5.50742174,9.71773477 5.774681,9.06800478 C5.99201421,8.57537225 5.97003727,8.01004439 5.71511589,7.53577061 C6.01607646,7.32886022 6.35779211,7.27948387 6.71126404,7.27478136 C6.68069773,8.16042055 7.11411231,8.82190681 7.7411135,9.38150538 C8.02248029,9.63308961 8.18393309,9.62211708 8.48489367,9.38777539 C8.55089592,9.33885051 8.61087794,9.28228852 8.66358901,9.21926882 C8.9480908,8.86109438 9.22632258,8.49821744 9.51004062,8.14004301 C9.59938829,8.0271828 9.70049223,7.92451135 9.79924492,7.81400239 C10.2577395,8.1855006 10.6746953,8.52721625 11.0955699,8.86344564 C11.4270968,9.12835364 11.7084636,9.10562485 11.9819928,8.78115173 C12.1857682,8.53897252 12.3817061,8.28973955 12.5643202,8.0318853 C12.8213907,7.66900836 12.8597945,7.29829391 12.5572664,6.93463321 C12.5276854,6.88583419 12.505251,6.83304742 12.4906476,6.77788292 L14.0581505,6.38600717 C14.0465413,6.44151081 14.0253221,6.49455879 13.9954504,6.54275747 C13.5722246,6.99263082 13.6098447,7.48325926 13.899049,7.96683393 C14.1740016,8.42969024 14.4749205,8.87662022 14.8003632,9.30548148 C14.9855892,9.53274793 15.2063159,9.72859658 15.4540119,9.88545759 C15.7063799,10.0547479 15.895264,9.95207646 15.9563967,9.65033214 C15.9888352,9.50165433 16.0100563,9.35074923 16.0198805,9.19889128 C16.0677978,8.30841853 15.9992942,7.41550001 15.8161051,6.54275747 L17.3600956,7.18386619 L17.2950442,7.75913978 Z"></path><path fill="#ADA1B5" fill-rule="nonzero" d="M14.7439331,12.9789247 C14.5469884,12.2035707 14.2104949,11.4705621 13.75092,10.8157706 C13.7059677,10.7468224 13.6573034,10.6803669 13.6051422,10.6166977 C13.4225281,10.4097873 13.3331804,10.3964636 13.1474313,10.5924014 C13.0003748,10.7428694 12.8726807,10.9111098 12.7673118,11.0932186 C12.5737252,11.4419881 12.4099211,11.8064325 12.2288746,12.1622557 C12.1724444,12.2751159 12.1026906,12.3809223 12.0486117,12.4757563 C11.8134863,12.4984851 11.7500024,12.3425185 11.6763297,12.2163345 C11.4114217,11.7609749 11.1535675,11.300129 10.896497,10.8392832 C10.8181219,10.6997754 10.7530705,10.5532139 10.6825329,10.4105711 C10.7899068,10.4795412 10.9011995,10.5438088 11.003871,10.6198327 C11.2013763,10.7679618 11.3855579,10.9333333 11.5893333,11.0720573 C11.9859116,11.3393166 12.2249558,11.3071828 12.5415914,10.9458734 C12.703828,10.760908 12.842552,10.5539976 13.006356,10.3705998 C13.2226714,10.1284205 13.3872593,10.098638 13.6513835,10.2922246 C13.8473214,10.4364349 14.0079904,10.6292378 14.1835508,10.8016631 C14.6538017,11.2609415 15.1154313,11.7264898 15.5943035,12.1763632 C15.7377595,12.2978118 15.8973289,12.3988285 16.0684731,12.47654 C16.3451374,12.6168315 16.4548626,12.5886165 16.6390442,12.340951 C16.9695873,11.9097119 17.2131489,11.4183298 17.3561768,10.8941458 C17.4784421,10.4238949 17.7872401,10.092368 18.1493333,9.80786619 C18.4761577,9.55157945 18.7512545,9.59625329 18.9950012,9.93326643 C19.1200557,10.1177468 19.2276342,10.3134871 19.3163393,10.517945 C19.4103895,10.7193692 19.4777921,10.9333333 19.5640048,11.13946 C19.7709152,11.6347909 19.8963154,11.653601 20.2842724,11.2962103 C20.5011589,11.09948 20.7330699,10.9199783 20.9778925,10.7593405 C21.1189677,10.6652903 21.2913931,10.6174815 21.531221,10.5132425 C21.5141662,10.6491803 21.4866533,10.7836003 21.4489271,10.915307 C21.243841,11.4668296 20.9467734,11.979609 20.5703417,12.4318662 C20.2999474,12.7453668 19.9746906,12.968736 19.5514648,13.0055723 C19.1454815,13.0416249 18.737147,13.0604349 18.3295962,13.0839474 C18.3727025,12.9757897 18.4079713,12.8637133 18.4620502,12.7610418 C18.7058999,12.3021747 18.8117833,11.7825569 18.7669295,11.2648602 C18.7293094,10.8322294 18.620368,10.4223274 18.3350824,10.0782605 C17.2754504,10.7460167 17.2542891,12.2915747 18.0756607,13.0839474 C18.0426813,13.0951047 18.0084677,13.1022106 17.973773,13.1051087 C16.8974209,13.0648761 15.8208076,13.0228148 14.7439331,12.9789247 Z"></path><path fill="#E4DFDE" fill-rule="nonzero" d="M12.4882963,6.77788292 C12.5028997,6.83304742 12.5253341,6.88583419 12.5549152,6.93463321 C12.8574432,7.30142891 12.8190394,7.67214337 12.5619689,8.0318853 C12.3793548,8.28973955 12.183417,8.53897252 11.9796416,8.78115173 C11.7061123,9.10562485 11.4247455,9.12835364 11.0932186,8.86344564 C10.6723441,8.52721625 10.2553883,8.1855006 9.79689367,7.81400239 C9.69814098,7.92451135 9.59703704,8.0271828 9.50768937,8.14004301 C9.22397133,8.49821744 8.94573955,8.86109438 8.66123775,9.21926882 C8.60852668,9.28228852 8.54854466,9.33885051 8.48254241,9.38777539 C8.18158184,9.62290084 8.02012903,9.63308961 7.73876225,9.38150538 C7.11176105,8.82190681 6.67834648,8.16042055 6.70891278,7.27478136 C7.03652091,7.26851135 7.36491278,7.23794504 7.69016965,7.25989008 C9.20045878,7.36177778 10.6754791,7.13213859 12.1426619,6.81236798 C12.2572059,6.79495452 12.3725698,6.7834443 12.4882963,6.77788292 Z"></path><path fill="#E4DFDF" fill-rule="nonzero" d="M15.8145376,6.55059498 C15.9977267,7.42333752 16.0662303,8.31625605 16.018313,9.20672879 C16.0084888,9.35858674 15.9872677,9.50949184 15.9548292,9.65816965 C15.8936965,9.95677897 15.7048124,10.0594504 15.4524444,9.8932951 C15.2047484,9.73643409 14.9840217,9.54058545 14.7987957,9.313319 C14.473353,8.88445773 14.1724341,8.43752775 13.8974815,7.97467145 C13.6082772,7.49109677 13.5706571,7.00046834 13.9938829,6.55059498 C14.0237546,6.5023963 14.0449738,6.44934832 14.056583,6.39384468 C14.6455876,6.2785541 15.255223,6.33291302 15.8145376,6.55059498 Z"></path><path fill="#AEA2B5" fill-rule="nonzero" d="M10.50227,10.3086834 C10.215417,10.2475508 10.0100741,10.372951 9.82745998,10.5837802 C9.43558423,11.0344373 9.20045878,11.5689558 8.95827957,12.1034743 C8.81485305,12.4169749 8.67691278,12.7406643 8.51545998,13.1090275 C8.39397849,13.0173286 8.30306332,12.9789247 8.26074074,12.9107384 C8.10399044,12.6630729 7.96448268,12.4067861 7.82340741,12.1512832 C7.68233214,11.8957802 7.55222939,11.6026571 7.38920908,11.3487216 C7.28026762,11.17708 7.14859737,11.1786476 7.01300836,11.3259928 C6.40873596,11.9819928 6.02077897,12.7422318 5.92045878,13.6380597 C5.90321625,13.7893238 5.88283871,13.9398041 5.86402867,14.0910681 C5.37810275,14.2478184 4.89374432,14.4178925 4.37490084,14.3912449 C4.39684588,14.1255532 4.46816726,13.8512401 4.42741219,13.5957372 C4.3819546,13.3135866 4.23382557,13.0471111 4.13037037,12.7743656 C4.02691517,12.5016201 3.91640621,12.2092808 3.80981601,11.9271302 C3.98224134,12.1465806 4.14291039,12.3770036 4.330227,12.5831302 C4.51940109,12.805208 4.73198283,13.0062278 4.96428196,13.1827001 C5.23075747,13.3708005 5.39612903,13.3104516 5.57247312,13.0298686 C5.87343369,12.5533477 6.16969176,12.0744755 6.46908483,11.5979546 C6.51924492,11.5195795 6.57332378,11.4412043 6.62583513,11.3628292 C6.98322581,10.8643632 7.20267622,10.8322294 7.69565591,11.2060789 C7.79832736,11.284454 7.89551254,11.3698829 7.99975149,11.4459068 C8.33989964,11.6927885 8.48332616,11.6857348 8.79212425,11.3769367 C9.12365114,11.0454098 9.44107049,10.6989916 9.77024612,10.3643297 C10.0320191,10.1103943 10.1770131,10.098638 10.50227,10.3086834 Z"></path><path fill="#E3DEDD" fill-rule="nonzero" d="M3.80824851,11.9271302 C3.91274871,12.2092808 4.01960016,12.4916926 4.12880287,12.7743656 C4.23225806,13.0471111 4.3803871,13.3135866 4.42584468,13.5957372 C4.46659976,13.8512401 4.39527838,14.1255532 4.37333333,14.3912449 C3.87329988,14.4265137 3.48926165,14.1937395 3.17967981,13.8363489 C2.77212903,13.366098 2.494681,12.8119857 2.43589964,12.1983082 C2.37687792,11.7012408 2.52385929,11.2016741 2.84266667,10.8157706 C3.20757384,11.0944543 3.51588822,11.4402772 3.75103465,11.8346476 L3.80746476,11.9232115 L3.80824851,11.9271302 Z"></path><path fill="#E3DEDE" fill-rule="nonzero" d="M5.71276464,7.54047312 C5.96768601,8.0147469 5.98966295,8.58007476 5.77232975,9.07270729 C5.50507049,9.72243728 5.19705615,10.3549247 4.90314934,10.9936822 C4.89139307,11.0211135 4.84985424,11.0344373 4.80753166,11.0642198 C4.50421983,10.8910108 4.36863082,10.5939689 4.24323059,10.2914409 C4.15936918,10.0876655 4.09666906,9.87448507 4.02456392,9.66443967 C4.0605843,9.50636162 4.10933596,9.35145717 4.1703417,9.20124253 C4.44830155,8.61797922 4.86255261,8.11017893 5.37810275,7.72073596 C5.48516868,7.65266508 5.59701394,7.59242056 5.71276464,7.54047312 L5.71276464,7.54047312 Z"></path><path fill="#E4DFDE" fill-rule="nonzero" d="M18.0764444,13.0886499 C17.2550729,12.2962772 17.2762342,10.7507192 18.3358662,10.082963 C18.6211517,10.4270299 18.7277419,10.8369319 18.7677133,11.2695627 C18.8125671,11.7872594 18.7066837,12.3068772 18.4628339,12.7657443 C18.4095388,12.8684158 18.3734863,12.9804922 18.3303799,13.0886499 L18.0764444,13.0886499 Z"></path><path fill="#E2DDDC" fill-rule="nonzero" d="M17.2950442,7.75913978 L17.3585281,7.18935245 L18.2128172,7.607092 C18.0349056,8.11496296 17.8993166,8.23409319 17.5074409,8.24741697 C17.4353357,8.08596416 17.3645368,7.9232051 17.2950442,7.75913978 Z"></path><path fill="#A99DB0" fill-rule="nonzero" d="M19.1360765,8.27719952 C19.4378208,8.30227957 20.0977395,8.7639092 20.7568746,9.39874791 C20.487264,9.57901075 20.3477563,9.58763202 20.1298734,9.37523536 C19.9119904,9.16283871 19.7379976,8.94103704 19.5451947,8.72315412 C19.4127407,8.57737634 19.2802867,8.43316607 19.1360765,8.27719952 Z"></path><path fill="#AB9FB2" fill-rule="nonzero" d="M17.5050896,8.24976822 C17.9024516,8.2372282 18.0349056,8.11731422 18.2104659,7.60944325 C18.6720956,7.81243489 18.8264946,7.91824134 18.9581649,8.12593548 C18.607828,8.01385902 18.607828,8.01385902 18.2708148,8.25838949 C18.0717419,8.40259976 17.8734528,8.54837754 17.6735962,8.69258781 C17.6412986,8.70620588 17.6076799,8.71644908 17.573276,8.72315412 C17.5560335,8.56248507 17.5286022,8.40573477 17.5050896,8.24976822 Z"></path><path fill="#AEA2B5" fill-rule="nonzero" d="M3.82606213,11.9346476 L3.75406213,11.8346476 L3.82606213,11.9346476 Z"></path></g></svg>