<?xml version="1.0" encoding="iso-8859-1"?>
<!-- Generator: Adobe Illustrator 19.0.0, SVG Export Plug-In . SVG Version: 6.00 Build 0)  -->
<svg xmlns="http://www.w3.org/2000/svg" xmlns:xlink="http://www.w3.org/1999/xlink" version="1.1" id="Layer_1" x="0px" y="0px" viewBox="0 0 422.32 422.32" style="enable-background:new 0 0 422.32 422.32;" xml:space="preserve" width="512" height="512">
<g id="_x34_2._Calculator_1_">
	<g id="XMLID_90_">
		<g>
			<g>
				<path style="fill:#FF7124;" d="M385.68,121.69v275.63c0,8.28-6.72,15-15,15H269.33v-0.93V266.98V122.57v-0.88H385.68z"/>
			</g>
			<g>
				<path style="fill:#8ECAC1;" d="M385.68,25v96.69H269.33H152.99H36.64V25c0-8.28,6.72-15,15-15h319.04      C378.96,10,385.68,16.72,385.68,25z"/>
			</g>
			<g>
				<path style="fill:#E6B263;" d="M269.33,411.39v0.93H152.99v-0.93V266.98H268.6h0.73V411.39z M238.83,358.82      c0-4.71-3.82-8.53-8.53-8.53c-4.71,0-8.53,3.82-8.53,8.53c0,4.71,3.82,8.53,8.53,8.53      C235.01,367.35,238.83,363.53,238.83,358.82z M200.54,320.53c0-4.71-3.81-8.53-8.53-8.53c-4.71,0-8.52,3.82-8.52,8.53      c0,4.71,3.81,8.53,8.52,8.53C196.73,329.06,200.54,325.24,200.54,320.53z"/>
			</g>
			<g>
				<polygon style="fill:#F2D59F;" points="269.33,122.57 269.33,266.98 268.6,266.98 152.99,266.98 152.99,122.57 152.99,121.69       269.33,121.69     "/>
			</g>
			<g>
				<circle style="fill:#5E2A41;" cx="230.3" cy="358.82" r="8.53"/>
			</g>
			<g>
				<path style="fill:#5E2A41;" d="M192.01,312c4.72,0,8.53,3.82,8.53,8.53c0,4.71-3.81,8.53-8.53,8.53c-4.71,0-8.52-3.82-8.52-8.53      C183.49,315.82,187.3,312,192.01,312z"/>
			</g>
			<g>
				<path style="fill:#F2D59F;" d="M152.99,411.39v0.93H51.64c-8.28,0-15-6.72-15-15V266.98h0.73h115.62V411.39z"/>
			</g>
			<g>
				<polygon style="fill:#E6B263;" points="152.99,122.57 152.99,266.98 37.37,266.98 36.64,266.98 36.64,121.69 152.99,121.69           "/>
			</g>
		</g>
		<g>
			<g>
				<path style="fill:#5E2A41;" d="M370.68,422.32H51.64c-13.785,0-25-11.215-25-25V25c0-13.785,11.215-25,25-25h319.04      c13.785,0,25,11.215,25,25v372.32C395.68,411.105,384.465,422.32,370.68,422.32z M51.64,20c-2.757,0-5,2.243-5,5v372.32      c0,2.757,2.243,5,5,5h319.04c2.757,0,5-2.243,5-5V25c0-2.757-2.243-5-5-5H51.64z"/>
			</g>
			<g>
				<path style="fill:#5E2A41;" d="M385.68,131.69H36.64c-5.523,0-10-4.477-10-10c0-5.523,4.477-10,10-10h349.04      c5.523,0,10,4.477,10,10C395.68,127.213,391.203,131.69,385.68,131.69z"/>
			</g>
			<g>
				<path style="fill:#5E2A41;" d="M269.33,421.39c-5.523,0-10-4.477-10-10V122.57c0-5.523,4.477-10,10-10c5.523,0,10,4.477,10,10      v288.82C279.33,416.913,274.853,421.39,269.33,421.39z"/>
			</g>
			<g>
				<path style="fill:#5E2A41;" d="M268.6,276.98H37.37c-5.523,0-10-4.477-10-10c0-5.523,4.477-10,10-10H268.6      c5.523,0,10,4.477,10,10C278.6,272.503,274.123,276.98,268.6,276.98z"/>
			</g>
			<g>
				<path style="fill:#5E2A41;" d="M119.54,204.34H70.09c-5.523,0-10-4.477-10-10c0-5.523,4.477-10,10-10h49.45      c5.523,0,10,4.477,10,10C129.54,199.863,125.063,204.34,119.54,204.34z"/>
			</g>
			<g>
				<path style="fill:#5E2A41;" d="M94.82,229.06c-5.523,0-10-4.477-10-10v-49.45c0-5.523,4.477-10,10-10c5.523,0,10,4.477,10,10      v49.45C104.82,224.583,100.343,229.06,94.82,229.06z"/>
			</g>
			<g>
				<path style="fill:#5E2A41;" d="M236.38,204.34h-50.44c-5.523,0-10-4.477-10-10c0-5.523,4.477-10,10-10h50.44      c5.523,0,10,4.477,10,10C246.38,199.863,241.903,204.34,236.38,204.34z"/>
			</g>
			<g>
				<path style="fill:#5E2A41;" d="M113.96,368.82c-2.56,0-5.118-0.976-7.071-2.929l-38.289-38.29      c-3.905-3.905-3.906-10.237-0.001-14.142c3.905-3.905,10.237-3.906,14.142,0l38.29,38.29c3.905,3.905,3.905,10.237,0,14.142      C119.078,367.843,116.519,368.82,113.96,368.82z"/>
			</g>
			<g>
				<path style="fill:#5E2A41;" d="M75.67,368.82c-2.56,0-5.12-0.977-7.073-2.931c-3.904-3.906-3.903-10.238,0.003-14.142      l38.287-38.287c3.903-3.907,10.235-3.908,14.142-0.003c3.906,3.904,3.908,10.236,0.004,14.142l-38.294,38.293      C80.786,367.844,78.228,368.82,75.67,368.82z"/>
			</g>
			<g>
				<path style="fill:#5E2A41;" d="M192.01,368.82c-2.559,0-5.119-0.976-7.071-2.929c-3.905-3.905-3.905-10.237,0-14.142      l38.29-38.29c3.905-3.905,10.237-3.905,14.143,0c3.905,3.905,3.905,10.237,0,14.143l-38.29,38.29      C197.129,367.844,194.569,368.82,192.01,368.82z"/>
			</g>
			<g>
				<path style="fill:#5E2A41;" d="M352.77,259.55h-51.11c-5.523,0-10-4.477-10-10c0-5.523,4.477-10,10-10h51.11      c5.523,0,10,4.477,10,10C362.77,255.073,358.293,259.55,352.77,259.55z"/>
			</g>
			<g>
				<path style="fill:#5E2A41;" d="M352.77,294.46h-51.11c-5.523,0-10-4.477-10-10c0-5.523,4.477-10,10-10h51.11      c5.523,0,10,4.477,10,10C362.77,289.983,358.293,294.46,352.77,294.46z"/>
			</g>
			<g>
				<path style="fill:#5E2A41;" d="M152.99,421.39c-5.523,0-10-4.477-10-10V122.57c0-5.523,4.477-10,10-10c5.523,0,10,4.477,10,10      v288.82C162.99,416.913,158.513,421.39,152.99,421.39z"/>
			</g>
		</g>
	</g>
</g>















</svg>
