<svg xmlns:xlink="http://www.w3.org/1999/xlink" xmlns="http://www.w3.org/2000/svg" width="50" height="50" viewBox="0 0 32 32"><g fill="none" fill-rule="evenodd" transform="translate(2.963 4.148)"><path fill="#4CB6CD" fill-rule="nonzero" d="M18.2081602,0 L19.7317317,0 C19.7705802,0.0275626779 19.8133355,0.0491636004 19.8585786,0.064085883 C21.6203403,0.339443908 23.0205886,1.21481481 24.0572092,2.64864842 C25.7055135,4.92968331 26.2812573,7.48607622 25.8922603,10.2628964 C25.4771892,13.2242276 24.2298619,15.7785078 22.0868549,17.8729189 C20.2546226,19.662394 18.051011,20.8800258 15.7198478,21.8828642 C15.2787027,22.0730091 14.8037317,22.1786452 14.340036,22.3237187 C14.7889329,21.8955405 15.2399439,21.4708835 15.6839079,21.0384799 C15.8396476,20.8863639 15.9763604,20.7145293 16.1215295,20.5511455 C16.2765646,20.4856511 16.4308949,20.4166355 16.5873393,20.3539581 C19.2158879,19.3060483 21.411043,17.7053097 23.0001522,15.3355405 C24.2164725,13.524234 25.0501381,11.588277 25.0804404,9.35372195 C25.1107427,7.10015244 24.5526166,5.0444745 23.2714635,3.16978637 C21.3525526,0.361275362 17.8861101,0.546490607 16.1208248,1.77750295 C14.4196677,2.96344391 13.1963003,5.69589694 14.8100741,7.99946753 C15.3604484,8.78469565 16.0996837,9.20583145 17.0651291,9.1875212 C17.8635596,9.17273215 18.249033,8.73399034 18.2173213,7.93890284 C18.2032272,7.57058508 18.1898378,7.20085883 18.2081602,6.83394954 C18.2236637,6.52760494 18.3667187,6.28252925 18.6965205,6.21210521 C19.0263223,6.14168116 19.2497137,6.31844552 19.4012252,6.58183145 C20.225025,8.02834138 19.7592152,9.33822866 18.385041,9.90655072 C17.4039852,10.3104494 16.3428591,10.4825278 15.2843403,10.4093784 C13.4577457,10.2952915 12.0426987,9.56428986 11.2816176,7.79664627 C11.0835956,7.336073 10.8045325,6.90366935 10.5205365,6.48675899 C10.1991912,6.01562211 9.70237437,5.86209769 9.15481882,5.92336661 C8.85010805,5.95439414 8.55189444,6.0315699 8.27041441,6.15224477 C6.93852252,6.76070853 5.98998999,7.7762233 5.32404404,9.05512399 C5.14082082,9.40724423 5.11263263,9.81077402 5.20283483,10.2227547 C5.29974914,10.1616785 5.38377641,10.0822521 5.45018619,9.98894686 C6.09918751,9.12135387 6.95640153,8.4310936 7.94272673,7.98186151 C8.94763564,7.52410521 9.32676677,7.61776919 10.0413373,8.44384326 C10.2830511,8.72553945 10.5346306,8.99596779 10.7587267,9.28893183 C11.8813213,10.7593859 13.4126446,11.4629222 15.2082322,11.6777155 C15.4823624,12.45238 16.1764965,12.7735137 16.8290531,13.1432399 C16.8015696,13.1664799 16.7895896,13.1833816 16.7733814,13.1890156 C16.6937497,13.2157767 16.6127087,13.2383124 16.5330771,13.2650735 C15.5074533,13.6004064 14.5812288,14.1850559 13.8375816,14.9665185 C13.7206006,15.0904648 13.6846607,15.2904691 13.6106667,15.4559656 C13.4318174,15.4661733 13.252531,15.4661733 13.0736817,15.4559656 C11.7044404,15.3094836 10.3563403,15.0566613 9.08152953,14.5221428 C8.13088288,14.1228384 7.20208208,13.6700118 6.26271071,13.2432421 C5.97519119,13.1129576 5.68978579,12.973518 5.3924004,12.8714031 C4.92659059,12.7115405 4.48192192,12.8284444 4.17678478,13.1847901 C3.85332533,13.562263 3.54255055,13.9855115 3.36073674,14.4411551 C3.08378779,15.1200429 2.83361762,15.8496361 3.07180781,16.5926098 C3.24093694,17.1193816 3.52634234,17.6074203 3.75396196,18.1158819 C3.90265465,18.4489877 4.09715315,18.7764595 4.16832833,19.126467 C4.2535976,19.5447858 4.22893293,19.9856404 4.25218819,20.4166355 C4.03232032,20.2201524 3.80258659,20.0335287 3.5946987,19.8257778 C2.16273874,18.4003951 0.667355355,17.020788 0.000704704705,15.0228578 L0.000704704705,13.8186065 C0.031007007,13.7566334 0.0662422422,13.6967729 0.0902022022,13.6326871 C0.294566567,13.0918304 0.451011011,12.5263253 0.708932933,12.012934 C2.0827945,9.2659957 3.9921107,6.82112377 6.32472472,4.82193451 C6.93274198,4.30109788 7.59886468,3.85210981 8.30987788,3.48387762 C9.49307708,2.86907568 10.7241962,2.87189265 11.9334695,3.47824369 C12.3922322,3.70853033 12.8495856,3.93670424 13.3090531,4.16487815 C13.3301942,4.14163822 13.3513353,4.12825765 13.356973,4.11065164 C14.0313754,1.99159206 15.5211211,0.752128824 17.6155035,0.166904992 C17.8121161,0.107044552 18.0101381,0.0542265164 18.2081602,0 Z"></path><path fill="#4D4040" fill-rule="nonzero" d="M15.2082322,11.6784198 C13.4126446,11.4636264 11.8813213,10.7629071 10.7587267,9.28963607 C10.5346306,8.99596779 10.2830511,8.72624369 10.0413373,8.4445475 C9.32676677,7.61847343 8.94763564,7.52480945 7.94272673,7.98256575 C6.95640153,8.43179784 6.09918751,9.12205811 5.45018619,9.9896511 C5.38377641,10.0829563 5.29974914,10.1623827 5.20283483,10.2234589 C5.11333734,9.81147826 5.14082082,9.40794847 5.32404404,9.05582823 C5.98998999,7.7762233 6.93852252,6.76070853 8.26900501,6.15506173 C8.55048503,6.03438687 8.84869864,5.95721111 9.15340941,5.92618357 C9.70096496,5.86209769 10.1977818,6.01562211 10.5191271,6.48957595 C10.801009,6.90648631 11.0828909,7.33888996 11.2802082,7.79946323 C12.0398799,9.56710682 13.4563363,10.2981084 15.2829309,10.4121954 C16.3414496,10.4853447 17.4025758,10.3132663 18.3836316,9.90936769 C19.7592152,9.33822866 20.225025,8.02834138 19.3977017,6.58183145 C19.2461902,6.31844552 19.0256176,6.14097692 18.692997,6.21210521 C18.3603764,6.28323349 18.2201401,6.52760494 18.2046366,6.83394954 C18.1863143,7.20085883 18.1997037,7.57058508 18.2137978,7.93890284 C18.2455095,8.73399034 17.8614454,9.17273215 17.0616056,9.1875212 C16.0996837,9.20583145 15.3604484,8.78469565 14.8065506,7.99946753 C13.1927768,5.69589694 14.4161441,2.96344391 16.1173013,1.77750295 C17.8861101,0.546490607 21.3525526,0.361275362 23.2714635,3.16908213 C24.5526166,5.04377026 25.1107427,7.09733548 25.0804404,9.35301771 C25.0501381,11.5875727 24.2164725,13.5235298 23.0001522,15.3348363 C21.4089289,17.7046055 19.2137738,19.3053441 16.5873393,20.3532539 C16.4308949,20.4159313 16.2765646,20.4849469 16.1215295,20.5504412 C16.0602202,20.5659345 15.9967968,20.5757939 15.9376016,20.5962169 C13.7206006,21.3659517 11.4422903,21.6941278 9.10901301,21.4131358 C8.14074875,21.2962319 7.1901021,21.0222823 6.23804605,20.7934042 C5.86455255,20.7039656 5.56152953,20.4694536 5.43397798,20.0891637 C5.06424291,18.9905486 4.70413881,17.8872385 4.35366567,16.7792335 C4.2831952,16.5588062 4.2691011,16.3214772 4.22893293,16.0911906 L4.3282963,16.0524573 C4.45443844,16.2517574 4.58198999,16.4503532 4.70601802,16.6510617 C5.09924324,17.2848782 5.46075676,17.9468642 5.89133133,18.5567364 C6.31868079,19.1900291 6.99485919,19.6123622 7.75175175,19.7187332 C8.41981181,19.8166227 9.08575776,19.9349351 9.75734134,19.9919785 C11.4923243,20.1377563 13.1913674,19.9159206 14.8558799,19.4159098 C16.5324316,18.9644046 18.1012932,18.1813287 19.4695816,17.1130435 C21.940981,15.1841288 23.5773053,12.7467525 23.8817377,9.55231777 C23.9909104,8.4140749 23.8321142,7.26609273 23.418042,6.20013312 C23.0975461,5.11250475 22.4934086,4.12960528 21.6675556,3.35218465 C20.7711712,2.50709608 19.7112953,2.15004616 18.4766527,2.27751369 C16.3322362,2.4986452 14.8333293,4.80644122 15.5253493,6.84451315 C15.6521962,7.21705636 15.8544464,7.52692217 16.2378058,7.68185507 C16.4675395,7.73749007 16.6965686,7.8353795 16.927007,7.83960494 C17.2596276,7.8459431 17.3751992,7.65861514 17.2793594,7.33888996 C17.2180501,7.13958991 17.1306667,6.94733226 17.051035,6.75296189 C16.8205966,6.18956951 16.927007,5.85435105 17.4372132,5.51913258 C17.881673,5.23557834 18.3867315,5.06066144 18.9114555,5.00855824 C19.4012252,5.05010843 19.840961,5.20152013 20.1714675,5.58814815 C21.5984945,7.26001503 21.2658739,10.1657112 18.9347107,11.0981256 C17.751294,11.5664718 16.4781351,11.7647305 15.2082322,11.6784198 Z"></path><path fill="#3479B7" fill-rule="nonzero" d="M14.8544705,19.4130929 C13.189958,19.9131036 11.4909149,20.1349393 9.75593193,19.9891616 C9.08434835,19.9321181 8.41699299,19.8138057 7.75034234,19.7159163 C6.99451192,19.6115898 6.31827297,19.1921936 5.88921722,18.5616661 C5.45864264,17.9517939 5.09712913,17.2940333 4.7039039,16.6559914 C4.57987588,16.4552829 4.45232432,16.2566871 4.32618218,16.057387 L4.22681882,16.0961202 C4.26698699,16.3264069 4.28178579,16.5637359 4.35155155,16.7841632 C4.70249449,17.8898207 5.0625986,18.9931308 5.43186386,20.0940934 C5.55941542,20.4729748 5.86243844,20.7074868 6.23593193,20.7983339 C7.18798799,21.027212 8.13863463,21.3011616 9.1068989,21.4180655 C11.4401762,21.6997617 13.7184865,21.3708814 15.9354875,20.6011465 C15.9946827,20.5807236 16.0581061,20.5708642 16.1194154,20.5553709 C15.9742462,20.7187547 15.8375335,20.8905894 15.6817938,21.0427053 C15.2378298,21.475109 14.7868188,21.899766 14.3379219,22.3279442 C13.9228509,22.6695008 13.5268068,23.0371143 13.0898899,23.3483886 C11.602963,24.4047493 10.0378138,24.5533441 8.43883884,23.6300848 C6.9159445,22.7381815 5.50965461,21.6609175 4.25218819,20.4229737 C4.22893293,19.9919785 4.25218819,19.551124 4.16832833,19.1328052 C4.09785786,18.7806849 3.90265465,18.4553258 3.75396196,18.1222201 C3.52352352,17.6102373 3.24164164,17.1221986 3.07180781,16.5954267 C2.83361762,15.8531573 3.08378779,15.1228599 3.36073674,14.4439721 C3.54607407,13.9883285 3.85403003,13.56508 4.17678478,13.1876071 C4.48192192,12.8312614 4.92659059,12.7143575 5.3924004,12.8742201 C5.68978579,12.9763349 5.97519119,13.1157746 6.26271071,13.246059 C7.20208208,13.6728288 8.13088288,14.1256554 9.08152953,14.5249597 C10.3563403,15.0594783 11.7044404,15.3123006 13.0736817,15.4587826 C13.252531,15.4689903 13.4318174,15.4689903 13.6106667,15.4587826 L13.6754995,15.5608975 C14.1272152,16.186263 14.7980941,16.4573956 15.4985706,16.6714847 C15.8389429,16.7757123 16.1884765,16.8517703 16.5436476,16.9433215 C16.1948188,17.2595255 15.8607888,17.533475 15.5570611,17.8405239 C15.1342382,18.2722233 14.8763163,18.7933612 14.8544705,19.4130929 Z"></path><path fill="#FCE3C2" fill-rule="nonzero" d="M13.6754995,15.5587848 L13.6106667,15.4566699 C13.6846607,15.2911734 13.7206006,15.0911691 13.8375816,14.9672228 C14.5812288,14.1857601 15.5074533,13.6011106 16.5330771,13.2657778 C16.6127087,13.2390166 16.6937497,13.2164809 16.7733814,13.1897198 C16.7895896,13.1840859 16.8015696,13.1671841 16.8290531,13.1439442 C16.1764965,12.7742179 15.4823624,12.4544928 15.2082322,11.6784198 C16.4769636,11.7642015 17.7488601,11.5659519 18.9311872,11.0981256 C21.2623504,10.1657112 21.594971,7.26001503 20.1679439,5.58814815 C19.8374374,5.20152013 19.3977017,5.05010843 18.9079319,5.00855824 C18.2706882,4.81954469 17.5926426,4.81661241 16.9537858,5.00010735 C16.7938725,5.05078922 16.6477591,5.13753211 16.5267347,5.25363392 C16.0954555,5.65505099 16.0278038,6.15506173 16.1814294,6.70084809 C16.2723363,7.02339023 16.402002,7.34241116 16.2378058,7.67974235 C15.8544464,7.52480945 15.6521962,7.21494364 15.5253493,6.84240043 C14.8333293,4.8043285 16.3322362,2.49653247 18.4766527,2.27540097 C19.7112953,2.14793344 20.7711712,2.50780032 21.6675556,3.35007193 C22.4938314,4.12827449 23.0979996,5.11219621 23.418042,6.20083736 C23.3969009,6.57971873 23.3891491,6.95930435 23.3525045,7.336073 C23.1248849,9.65584112 22.0896737,11.5319377 20.225025,12.9340805 C18.5372573,14.2017134 16.5943864,14.8848266 14.5584945,15.3418787 C14.2632232,15.41019 13.9700661,15.4869522 13.6754995,15.5587848 Z"></path><path fill="#D8A87D" fill-rule="nonzero" d="M13.6754995,15.5587848 C13.9700661,15.4883607 14.2632232,15.41019 14.5584945,15.3439914 C16.5943864,14.8869393 18.5372573,14.2052346 20.225025,12.9361932 C22.0896737,11.5340505 23.1248849,9.65795384 23.3525045,7.33818572 C23.3891491,6.96141707 23.3969009,6.58183145 23.418042,6.20295008 C23.8321142,7.2689097 23.9909104,8.41689186 23.8817377,9.55513473 C23.5773053,12.7488653 21.940981,15.1890585 19.4695816,17.1158604 C18.1004052,18.182308 16.5310797,18.9634605 14.8544705,19.4130929 C14.8763163,18.7933612 15.1363524,18.2722233 15.5591752,17.8384112 C15.8600841,17.5313623 16.1934094,17.2574128 16.5457618,16.9412088 C16.1934094,16.8496575 15.8410571,16.7735996 15.5006847,16.669372 C14.7987988,16.4552829 14.1272152,16.1841503 13.6754995,15.5587848 Z"></path><path fill="#D7A77C" fill-rule="nonzero" d="M16.2378058,7.68185507 C16.402002,7.34452389 16.2723363,7.02550295 16.1814294,6.70296082 C16.0278038,6.15717445 16.0954555,5.65716371 16.5267347,5.25574665 C16.6477591,5.13964483 16.7938725,5.05290195 16.9537858,5.00222008 C17.592441,4.8180361 18.2704865,4.82023531 18.9079319,5.00855824 C18.3832079,5.06066144 17.8781495,5.23557834 17.4336897,5.51913258 C16.9234835,5.85435105 16.8170731,6.18886527 17.0475115,6.75296189 C17.1271431,6.94733226 17.2145265,7.13958991 17.2758358,7.33888996 C17.3751992,7.65861514 17.2596276,7.8459431 16.9234835,7.83960494 C16.6965686,7.8353795 16.4675395,7.73749007 16.2378058,7.68185507 Z"></path></g></svg>