<svg xmlns:xlink="http://www.w3.org/1999/xlink" xmlns="http://www.w3.org/2000/svg" width="30" height="30" viewBox="0 0 32 32"><g fill="none" fill-rule="evenodd" transform="translate(4.148 4.148)"><path fill="#9B47CC" fill-rule="nonzero" d="M11.924779,0 C12.0407742,0.0384038232 12.1599044,0.0697538829 12.2727646,0.116778973 C12.8566595,0.35660693 13.4436894,0.592516129 14.0205305,0.848802867 C14.2095401,0.937149347 14.4185571,0.973923355 14.6263704,0.95539307 C15.2698303,0.903665472 15.9148578,0.877017921 16.5598853,0.848802867 C16.9453907,0.822407525 17.3126536,1.01635875 17.5082246,1.34962007 C17.6485161,1.56593548 17.7958614,1.77833214 17.9479092,1.98759379 C18.099957,2.19685544 18.3013811,2.2815006 18.5882342,2.2282055 C19.7591589,2.01345759 20.9394886,1.89981362 22.1229534,2.1247503 C22.5548005,2.20704421 22.9741075,2.37398327 23.3887121,2.53073357 C23.7272927,2.65926882 23.8785568,2.94377061 23.9263656,3.29567503 C24.0429794,4.19444766 24.0300463,5.105302 23.8879618,6.00040143 C23.7915603,6.63602389 23.6246213,7.26145759 23.4780597,7.88845878 C23.4498447,8.00758901 23.4169271,8.10242294 23.508626,8.21214815 C24.4953692,9.3956129 24.4334528,10.6817491 23.8722867,12.0141266 C23.4545472,13.0102748 22.8330323,13.8763202 22.1989773,14.7345281 C20.3783226,17.2064803 18.2363297,19.3798232 15.9626667,21.4293333 C15.5613859,21.7914265 15.1554026,22.149601 14.7274743,22.4787766 C13.8183226,23.1778829 12.7963106,23.5815149 11.6324397,23.5634886 C10.9270633,23.5525161 10.2710633,23.341687 9.64719713,23.0227001 C8.73334289,22.5524492 7.90335006,21.9591493 7.09451852,21.3352832 C5.37026523,20.0029056 3.74319713,18.5631541 2.29717563,16.9313835 C1.72425329,16.2855723 1.21951732,15.5715747 0.696755078,14.8779546 C0.425417577,14.5076792 0.228699939,14.0881569 0.117562724,13.6427622 C0.0867210095,13.5604847 0.0473169804,13.4816767 0,13.4076368 L0,11.9968841 C0.0415388292,11.9059689 0.0893476703,11.817405 0.122265233,11.7233548 C0.269610514,11.3040478 0.374633214,10.865147 0.564301075,10.4654337 C2.22663799,6.95736201 4.59435125,3.99713262 7.57809319,1.52831541 C8.37987097,0.865261649 9.27726643,0.35660693 10.3055484,0.117562724 C10.4246786,0.0893476703 10.5406738,0.0391875747 10.6543178,0.00313500597 L11.924779,0 Z M7.33669773,19.547546 C7.36334528,19.569491 7.39077658,19.5906523 7.41507288,19.6118136 L7.54752688,19.6823513 C7.60176591,19.7658358 7.66716126,19.8415151 7.74189725,19.9072879 C8.41839828,20.3696792 9.15732326,20.7333359 9.93640143,20.9872975 C10.3353873,21.1251433 10.7701545,21.118207 11.16454,20.9677037 C12.0360717,20.6416631 12.8496057,20.2552736 13.2806691,19.3555269 C13.3006331,19.3134091 13.3245119,19.2732612 13.3519904,19.2356129 C13.6184839,18.8569399 14.0357249,18.6120252 14.4962676,18.5639379 C14.9594648,18.512994 15.4281481,18.509859 15.895264,18.4855627 C16.3357324,18.4644014 16.7393644,18.3288124 16.9925161,17.9573142 C17.1586714,17.7112162 17.2597754,17.4141744 17.3538256,17.1288889 C17.4980358,16.6915556 17.7699976,16.4047025 18.2159522,16.2887073 C18.3927954,16.231988 18.573899,16.1895296 18.7575245,16.1617395 C19.8359665,16.0629869 20.6048268,15.4563632 21.1871541,14.6146141 C21.5649223,14.0722581 21.8611804,13.4672019 22.1401959,12.8660645 C22.57236,11.9603802 22.8823013,11.0013016 23.0618877,10.0139928 C23.1551541,9.4716368 22.8628148,8.92771326 22.2985137,8.95906332 C22.3141888,8.88068817 22.325945,8.80231302 22.3478901,8.72393787 C22.5046404,8.16198805 22.6786332,7.60317324 22.8322485,7.03965591 C23.1324253,5.93691756 23.2844731,4.82555795 23.0877515,3.68049701 C23.0242676,3.31135006 22.852626,3.11776344 22.5030729,3.04095579 C21.8669052,2.88848665 21.2111874,2.83404172 20.5585854,2.87950299 C19.5052234,2.96885066 18.4683202,3.11462843 17.4706045,3.47672162 C17.386329,3.50187207 17.3007802,3.52253983 17.2143178,3.53863799 C17.2143178,3.25883871 17.2339116,3.01195699 17.2143178,2.76977778 C17.1461314,2.07067145 16.9791924,1.88413859 16.4517276,1.78930466 C15.9031016,1.69133572 15.3199904,1.63882437 14.7760669,1.72268578 C13.2595078,1.95781123 11.8863751,2.57540741 10.6574528,3.50023417 C10.3321959,3.74476464 10.0171278,4.00340263 9.66835842,4.27771565 C9.33996655,3.87486738 8.88460693,3.89132616 8.46294863,3.96421505 C7.94515141,4.0547413 7.43672701,4.19247236 6.94403823,4.37568459 C5.35765539,4.95882524 3.9619542,5.96656055 2.90928554,7.28888889 C1.70701075,8.79682676 0.956960573,10.4795412 1.05571326,12.4616487 C1.07459038,12.8246253 1.16292167,13.1806111 1.31591876,13.5103082 C1.45106672,13.8442159 1.75817869,14.0773322 2.11612903,14.1177157 C2.34184946,14.2587909 2.5707049,14.3967312 2.79329032,14.542509 C3.78497085,15.1799893 4.70103856,15.9280411 5.52388053,16.772282 C5.62663077,16.8614178 5.73794243,16.9401761 5.85619116,17.0074074 L5.85619116,17.0074074 L5.92437754,17.1500502 L5.92437754,17.1500502 L5.99256392,17.2887742 C6.06623656,17.4455245 6.13599044,17.6061935 6.21279809,17.7590251 C6.50356989,18.34919 6.6908865,18.99892 7.20110872,19.4613333 L7.33434648,19.5459785 L7.33669773,19.547546 Z"></path><path fill="#4E4040" fill-rule="nonzero" d="M7.55066189,19.6823513 L7.41820789,19.6118136 L7.33983274,19.547546 L7.33983274,19.547546 L7.20659498,19.4629008 C6.69637276,19.0004875 6.50905615,18.3507575 6.21828435,17.7605926 C6.1399092,17.6038423 6.07172282,17.447092 5.99805018,17.2903417 L5.9298638,17.1516177 L5.9298638,17.1516177 L5.85619116,17.0074074 L5.85619116,17.0074074 C5.85165414,16.9611933 5.84165692,16.9156797 5.8264086,16.8718184 C5.52074552,16.2401147 5.22683871,15.6013572 4.90079809,14.980626 C4.69796827,14.6106316 4.47477903,14.2521682 4.23225806,13.9068865 C3.87721864,13.3841243 3.59271685,13.3441529 3.10130466,13.7227049 C3.04644205,13.7650275 2.98609319,13.80108 2.93201434,13.8457539 C2.70178854,14.0319054 2.4120006,14.1285014 2.11612903,14.1177157 C1.75806857,14.0777485 1.45064165,13.8449222 1.31513501,13.511092 C1.16231129,13.1810983 1.07424435,12.8248395 1.05571326,12.4616487 C0.956960573,10.480325 1.70701075,8.79761051 2.90928554,7.28888889 C3.96023035,5.96817946 5.35335123,4.9610878 6.93698447,4.37725209 C7.42967325,4.19403987 7.93809765,4.0563088 8.45589486,3.96578256 C8.88147192,3.88740741 9.33291278,3.87329988 9.66130466,4.27928315 C10.0100741,4.00497013 10.3251422,3.74633214 10.650399,3.50180167 C11.8793214,2.5738399 13.252454,1.95937873 14.7690131,1.72425329 C15.3129367,1.64039188 15.8976153,1.69290323 16.4446738,1.79087216 C16.9760573,1.88570609 17.1390777,2.07223895 17.207264,2.77134528 C17.2307766,3.01352449 17.207264,3.26040621 17.207264,3.5402055 C17.2937265,3.52410733 17.3792753,3.50343957 17.4635508,3.47828913 C18.4612664,3.11384468 19.5013047,2.97041816 20.5515317,2.88107049 C21.2041337,2.83560922 21.8598515,2.89005415 22.4960191,3.0425233 C22.8471398,3.12089845 23.0172139,3.31291756 23.0806977,3.68206452 C23.2774194,4.82712545 23.1253716,5.93848507 22.8251947,7.04122342 C22.6684444,7.60474074 22.5015054,8.16355556 22.3408363,8.72550538 C22.3188913,8.80388053 22.307135,8.88225568 22.29146,8.96063082 C22.242488,9.05080337 22.1992947,9.14399627 22.162141,9.23964636 C21.8395615,10.2307904 21.4260724,11.1900012 20.9269486,12.1050418 C20.3124875,13.2320765 19.4378208,14.0644205 18.1461983,14.3442198 C17.440822,14.5009701 17.0426762,14.3928124 16.8138208,13.6568698 C16.7685564,13.4753789 16.7098749,13.2975006 16.6382605,13.1247025 C16.5598853,12.9679522 16.4360526,12.8300119 16.2824373,12.6144803 C16.2213047,12.7986619 16.1805496,12.8919283 16.1593883,12.9883297 C16.0810131,13.3418017 16.0433931,13.7046786 15.9383704,14.0487455 C15.7032449,14.8176057 15.4414719,15.5786284 15.1820502,16.3404349 C15.0872162,16.6202342 14.8881434,16.7542557 14.5840478,16.806767 C14.1215002,16.8753859 13.6510787,16.8714194 13.1897539,16.7950108 C12.6756129,16.7236894 12.5078901,16.5810466 12.353491,16.0896344 C12.262088,15.7883215 12.1467714,15.4947882 12.0086404,15.2118327 C11.7801872,14.7507137 11.3701738,14.4054393 10.8769032,14.2587909 C10.8502557,14.6020741 10.8165544,14.9147909 10.8024468,15.2282915 C10.7726643,15.9187766 10.764043,16.6100454 10.7240717,17.2997467 C10.6833166,18.0051231 10.4654337,18.6681768 10.1503656,19.3061505 C9.81883871,19.9786093 9.14794743,20.1204683 8.61969892,20.0029056 C8.25838949,19.919828 7.90648507,19.790509 7.55066189,19.6823513 Z M21.9450418,5.29345759 C21.9669664,5.22668676 21.9821939,5.15790041 21.9904994,5.0881147 C22.0085257,4.3545233 21.8000478,4.04964397 21.0217826,4.02221266 L20.9512449,4.02221266 C20.2991637,4.00575388 19.6721625,4.13428913 19.0451613,4.3059307 C18.3954313,4.48462605 17.7778351,4.73856153 17.2636941,5.19000239 C17.1740016,5.26039014 17.1111963,5.35943993 17.0857826,5.47058542 C16.9987861,6.3483871 16.9290323,7.22462127 16.8506571,8.10163919 C16.7895245,8.55151254 16.7286531,9.0013859 16.668043,9.45125926 C16.5951541,9.9951828 16.5254002,10.5406738 16.4478088,11.0845974 C16.4211613,11.2695627 16.4548626,11.3941792 16.6539355,11.4639331 C16.9548961,11.5697395 17.1625902,11.7978112 17.3162055,12.0682055 C17.437687,12.2813859 17.5450609,12.5039713 17.6453811,12.7281243 C17.7237563,12.9130896 17.8232927,12.975006 18.0505806,12.9420884 C18.5094004,12.8859401 18.9253365,12.6447027 19.2019116,12.2743321 C19.5044397,11.8730514 19.8077515,11.4615818 20.0279857,11.013276 C20.6232306,9.81892008 21.1293464,8.58218471 21.5421935,7.31318519 C21.7538065,6.65483393 21.9450418,5.99256392 21.9450418,5.29345759 Z M15.9321004,4.4368172 C15.9391541,4.07629152 15.9728554,3.71341458 15.9446404,3.35524014 C15.9203441,3.05741458 15.7236225,2.89596177 15.4226619,2.88498925 C15.165513,2.86965308 14.9074563,2.88676908 14.6545854,2.93593309 C12.9663847,3.32389008 11.533687,4.17504421 10.2961434,5.37340024 C10.1809319,5.4854767 10.1613381,5.58422939 10.1973907,5.74489845 C10.3220072,6.30371326 10.4254624,6.86723059 10.5257826,7.43153166 C10.5986714,7.84535245 10.6527503,8.26230824 10.7154504,8.67769654 C10.7154504,8.77174671 10.7154504,8.86579689 10.7154504,8.95984707 C10.7624755,10.1913819 10.8105456,11.4226555 10.8596607,12.6536679 C10.8663529,12.6923179 10.8771243,12.7301495 10.8917945,12.7665281 C11.0234648,12.8017969 11.1598375,12.833147 11.2930753,12.8762533 C12.1552019,13.1529176 12.7077467,13.7587575 13.0957037,14.5534815 C13.2078536,14.7973693 13.3537547,15.0242679 13.5291183,15.2275078 C13.7321099,15.4516607 13.9484253,15.4273644 14.1780645,15.2275078 C14.4276622,15.0079839 14.5999641,14.713944 14.6694767,14.3888937 C14.807417,13.7618925 14.9234122,13.1278375 15.0260836,12.4937826 C15.1744739,11.5814958 15.3108467,10.6671191 15.4352019,9.75065233 C15.5276846,9.06643728 15.5919522,8.37830346 15.6703274,7.69095341 C15.73773,7.06395221 15.8059164,6.43695102 15.8592115,5.80367981 C15.892129,5.34910394 15.9101553,4.89296057 15.9321004,4.4368172 Z M9.29607646,7.33669773 C9.20594504,6.86644683 9.15029869,6.38679092 9.01627718,5.92594504 C8.85952688,5.38202151 8.54054002,5.22762246 7.99740024,5.36086022 C7.80204528,5.40414892 7.61314606,5.47264793 7.43545042,5.5646356 C6.78885544,5.91732378 6.13285544,6.25982318 5.51447551,6.65718519 C4.19385424,7.50128554 3.25962246,8.68553405 2.63575627,10.1182318 C2.38730705,10.6903704 2.21331422,11.2860215 2.21566547,11.9130227 C2.20077419,12.3574098 2.27914934,12.4506762 2.7047264,12.4114886 C2.90203966,12.3915 3.09405965,12.3357266 3.27137873,12.2469008 C3.51120669,12.1269869 3.51120669,12.0117754 3.32153883,11.8244588 C3.26667622,11.7688124 3.22200239,11.7037611 3.17105854,11.6426284 C3.27529749,11.4529606 3.40618399,11.407503 3.5950681,11.4568793 C4.14369415,11.5893333 4.60610753,11.8534576 4.91882437,12.319006 C5.23361472,12.771191 5.51620166,13.2449628 5.76449223,13.7368124 C6.22533811,14.6984755 6.63132139,15.6860024 7.07257348,16.6570705 C7.29124014,17.1367264 7.52009558,17.6140311 7.77794982,18.0748769 C7.97790059,18.4378891 8.39085918,18.6284854 8.79682676,18.5451278 C9.20908005,18.4761577 9.39169415,18.1900884 9.45752927,17.819374 C9.53539011,17.4415489 9.58308798,17.0581313 9.60017204,16.6727455 C9.61898208,15.1830952 9.62263959,13.6939673 9.61114456,12.205362 C9.6056583,11.3722342 9.58371326,10.5383226 9.53276941,9.70676225 C9.47712306,8.91752449 9.37523536,8.12671924 9.29607646,7.33434648 L9.29607646,7.33669773 Z"></path><path fill="#7736C1" fill-rule="nonzero" d="M7.55066189 19.6823513C7.90648507 19.790509 8.25603823 19.9174767 8.62048268 20.0005544 9.14873118 20.1181171 9.81962246 19.9762581 10.1511493 19.3037993 10.4646499 18.6658256 10.6841004 18.0059068 10.7248554 17.2973955 10.7648268 16.6076941 10.773448 15.9164253 10.8032306 15.2259403 10.8173381 14.9124397 10.8510394 14.5989391 10.877687 14.2564397 11.3709576 14.403088 11.780971 14.7483625 12.0094241 15.2094815 12.1475551 15.4924369 12.2628718 15.7859703 12.3542748 16.0872832 12.5110251 16.5810466 12.6763967 16.7236894 13.1905376 16.7926595 13.6518624 16.8690681 14.1222839 16.8730346 14.5848315 16.8044158 14.8889271 16.7519044 15.088 16.6178829 15.1828339 16.3380836 15.4422557 15.5762772 15.7040287 14.8152545 15.9391541 14.0463943 16.0441768 13.7023274 16.0849319 13.3410179 16.160172 12.9859785 16.1813333 12.8895771 16.2220884 12.7963106 16.283221 12.612129 16.4399713 12.8276607 16.5606691 12.9632497 16.6390442 13.1223513 16.7106586 13.2951493 16.7693401 13.4730277 16.8146045 13.6545185 17.04973 14.3904612 17.4416057 14.4970514 18.1469821 14.3418686 19.4417395 14.0581505 20.3132712 13.2297252 20.9277324 12.1026906 21.4268562 11.1876499 21.8403453 10.2284391 22.1629247 9.2372951 22.2000785 9.14164501 22.2432718 9.04845212 22.2922437 8.95827957 22.8565448 8.92692951 23.1488841 9.47085305 23.0556177 10.0132091 22.8760313 11.0005178 22.56609 11.9595965 22.1339259 12.8652808 21.8549104 13.4664182 21.5586523 14.0714743 21.1808841 14.6138303 20.5962055 15.4524444 19.8273453 16.0622031 18.7512545 16.1609558 18.567629 16.1887458 18.3865254 16.2312043 18.2096822 16.2879235 17.7637276 16.4039188 17.4917658 16.6907718 17.3475556 17.1281051 17.2535054 17.4133907 17.1524014 17.7104325 16.9862461 17.9565305 16.7354456 18.3288124 16.3318136 18.4636177 15.888994 18.484779 15.4187431 18.506724 14.9531947 18.509859 14.4899976 18.5631541 14.0294549 18.6112414 13.6122139 18.8561562 13.3457204 19.2348292 13.3182419 19.2724775 13.2943631 19.3126254 13.274399 19.3547431 12.8449032 20.2544898 12.0313692 20.6408793 11.15827 20.96692 10.7638844 21.1174233 10.3291173 21.1243596 9.93013142 20.9865137 9.15105324 20.7325521 8.41212826 20.3688955 7.73562724 19.9065042 7.66426555 19.8403565 7.60206027 19.7649721 7.55066189 19.6823513L7.55066189 19.6823513zM2.11612903 14.1177157C2.41173404 14.1283105 2.70121075 14.0317255 2.93123059 13.8457539 2.98530944 13.8018638 3.0456583 13.7673787 3.10052091 13.7227049 3.59193309 13.3441529 3.87643489 13.3841243 4.23147431 13.9068865 4.47392107 14.2514054 4.69710923 14.6090821 4.90001434 14.9782748 5.22605496 15.599006 5.51996177 16.2377634 5.82562485 16.8694671 5.84087317 16.9133284 5.85087038 16.9588421 5.85540741 17.0050562 5.73715868 16.9378248 5.62584702 16.8590666 5.52309677 16.7699307 4.70049957 15.9257366 3.78469683 15.1776865 2.79329032 14.5401577 2.57148865 14.3967312 2.34263321 14.2587909 2.11612903 14.1177157z"></path><path fill="#017B8F" fill-rule="nonzero" d="M5.85759677 17.0074074L5.94459677 17.1500502 5.85759677 17.0074074zM5.92656691 17.1476989L6.01356691 17.2864229 5.92656691 17.1476989z"></path><path fill="#E27B11" fill-rule="nonzero" d="M7.20189247 19.4621171L7.33513023 19.5621171 7.20189247 19.4621171zM7.33669773 19.5494922L7.43669773 19.6314922 7.33669773 19.5494922z"></path><path fill="#D8A87C" fill-rule="nonzero" d="M9.29607646 7.33434648C9.37445161 8.12671924 9.47712306 8.91752449 9.53120191 9.710681 9.58449701 10.5422413 9.60957706 11.3761529 9.60957706 12.2092808 9.61950458 13.6999761 9.61584707 15.1891039 9.59860454 16.6766643 9.58152048 17.0620501 9.53382261 17.4454676 9.45596177 17.8232927 9.39012664 18.1940072 9.20751254 18.4800765 8.79525926 18.5490466 8.38929167 18.6324042 7.97633309 18.4418079 7.77638232 18.0787957 7.52166308 17.6179498 7.29280765 17.1382939 7.07100597 16.6609892 6.62975388 15.6899211 6.22377061 14.7016105 5.76292473 13.7407312 5.51463416 13.2488816 5.23204722 12.7751098 4.91725687 12.3229247 4.60375627 11.8526738 4.13820789 11.5901171 3.5935006 11.4607981 3.40775149 11.4153405 3.27372999 11.4568793 3.16949104 11.6465472 3.22043489 11.7076798 3.26510872 11.7727312 3.31997133 11.8283775 3.50963919 12.0180454 3.50963919 12.1309056 3.26981123 12.2508196 3.09249215 12.3396453 2.90047216 12.3954188 2.7031589 12.4154074 2.27758184 12.454595 2.19920669 12.3613286 2.21409797 11.9169415 2.32382318 11.8221075 2.4672497 11.7468674 2.53543608 11.6285209 2.84031541 11.1034074 3.1248172 10.5657539 3.41402151 10.0320191 3.59428435 9.69814098 3.84978734 9.61584707 4.15780167 9.84 4.39586201 10.0285692 4.62225979 10.2314111 4.83574671 10.4474074 5.28405257 10.8674982 5.78173477 11.0908674 6.39619594 10.8392832 6.83299601 10.6621577 7.21624499 10.3745184 7.50833931 10.0045878 8.17609558 9.16362246 8.83523059 8.31403584 9.29607646 7.33434648zM15.9321004 4.4368172C15.9070203 4.89296057 15.892129 5.34910394 15.8537252 5.80446356 15.8004301 6.43146476 15.7322437 7.06316846 15.6648411 7.69173716 15.5919522 8.37908722 15.5253333 9.06722103 15.4297157 9.75143608 15.3058829 10.6679028 15.1695102 11.5822796 15.0205974 12.4945663 14.9179259 13.1286213 14.8019307 13.7618925 14.6639904 14.3896774 14.5944778 14.7147277 14.4221759 15.0087677 14.1725783 15.2282915 13.9429391 15.4297157 13.7266237 15.4540119 13.523632 15.2282915 13.3482684 15.0250516 13.2023673 14.798153 13.0902174 14.5542652 12.7053955 13.7595412 12.1497157 13.1537013 11.287589 12.877037 11.1543513 12.8339307 11.0179785 12.8025806 10.8863082 12.7673118 10.8716381 12.7309333 10.8608666 12.6931017 10.8541744 12.6544516 10.8055818 11.4234393 10.7575117 10.1921657 10.7099642 8.96063082 10.7099642 8.86658065 10.7099642 8.77253047 10.7099642 8.67848029 11.1872688 8.98257587 11.4459068 8.9723871 11.8252425 8.58834886 12.5630139 7.84953246 13.2908578 7.10287853 14.0087742 6.3483871 14.4751063 5.85775866 14.9132234 5.33969892 15.3803393 4.85063799 15.5378734 4.68761768 15.747135 4.57397372 15.9321004 4.4368172zM21.9450418 5.29345759C21.9450418 5.99256392 21.7522389 6.65483393 21.5414098 7.31318519 21.1285626 8.58218471 20.6224468 9.81892008 20.0272019 11.013276 19.8069677 11.4615818 19.5036559 11.8754026 19.2011278 12.2743321 18.9238251 12.6454384 18.5066133 12.8867585 18.0466619 12.9420884 17.819374 12.975006 17.7237563 12.9130896 17.6414624 12.7281243 17.5411422 12.5039713 17.4337682 12.2813859 17.3122867 12.0682055 17.1555364 11.7978112 16.9509773 11.5697395 16.6500167 11.4639331 16.4509438 11.3941792 16.4148913 11.2695627 16.4438901 11.0845974 16.5222652 10.5406738 16.5912354 9.9951828 16.6641243 9.45125926 16.7257794 9.0024309 16.787957 8.55255755 16.8506571 8.10163919 16.9000335 8.30149582 16.9290323 8.51702748 17.2339116 8.62753644 17.3122867 8.5295675 17.3906619 8.40965352 17.4847121 8.30698208 18.0525695 7.69788662 18.6777526 7.14488039 19.3516081 6.65561768 20.1486834 6.07799283 20.9872975 5.56933811 21.9450418 5.29345759z"></path><path fill="#FCE3C2" fill-rule="nonzero" d="M9.29607646 7.33434648C8.83523059 8.31403584 8.17609558 9.16362246 7.50990681 10.0053716 7.21781249 10.3753022 6.83456351 10.6629414 6.39776344 10.8400669 5.78330227 11.0900836 5.28562007 10.8667145 4.83731422 10.4481912 4.62382729 10.2321949 4.39742951 10.0293529 4.15936918 9.84078375 3.85135484 9.61663082 3.59585185 9.69892473 3.41558901 10.0328029 3.12638471 10.5665376 2.84188292 11.1041912 2.53700358 11.6293047 2.4688172 11.7476511 2.32539068 11.8228913 2.21566547 11.9177252 2.21566547 11.2852378 2.38730705 10.6919379 2.63575627 10.1197993 3.26275747 8.68710155 4.19385424 7.50285305 5.51447551 6.65483393 6.13285544 6.25590442 6.78885544 5.91340502 7.43545042 5.5646356 7.61219564 5.47317213 7.800024 5.40494275 7.99426523 5.36164397 8.54289128 5.22840621 8.85639188 5.38280526 9.01314217 5.92672879 9.15029869 6.38443967 9.20594504 6.86409558 9.29607646 7.33434648zM15.9321004 4.4368172C15.747135 4.57397372 15.5402246 4.68761768 15.3834743 4.8522055 14.9132234 5.34126643 14.4782413 5.85932616 14.0119092 6.3499546 13.2919028 7.10496854 12.5661489 7.85162246 11.8346476 8.58991637 11.4553118 8.9739546 11.1966738 8.98179211 10.7193692 8.68004779 10.6566691 8.2646595 10.6025902 7.8477037 10.5297013 7.43388292 10.4293811 6.86958184 10.3259259 6.30606452 10.2013094 5.7472497 10.1652569 5.5904994 10.1848507 5.48782796 10.3000621 5.37575149 11.533687 4.17739546 12.9663847 3.32624134 14.6561529 2.93828435 14.9090238 2.88912033 15.1670805 2.87200433 15.4242294 2.8873405 15.72519 2.89596177 15.9219116 3.05741458 15.9462079 3.3575914 15.9728554 3.71341458 15.9391541 4.07550777 15.9321004 4.4368172zM21.9450418 5.29345759C20.98573 5.56933811 20.1471159 6.07720908 19.3476894 6.65561768 18.6743432 7.1452078 18.0496865 7.69847515 17.4823608 8.30776583 17.3859594 8.41043728 17.3075842 8.53035125 17.2315603 8.62832019 16.9243297 8.51781123 16.8976822 8.30227957 16.8483059 8.10242294 16.9290323 7.22462127 16.9987861 6.3483871 17.0857826 5.47058542 17.1103716 5.35987629 17.1720336 5.26088515 17.2605591 5.19000239 17.7747001 4.73856153 18.3922963 4.48462605 19.0420263 4.3059307 19.6690275 4.13428913 20.2960287 4.00575388 20.9504612 4.02142891L21.0209988 4.02142891C21.799264 4.04886022 22.0077419 4.35373955 21.9897157 5.08733094 21.9817165 5.15735453 21.9667511 5.22640537 21.9450418 5.29345759L21.9450418 5.29345759z"></path></g></svg>